<?xml version="1.0" encoding="utf-8"?>
<!-- Generator: Adobe Illustrator 27.1.0, SVG Export Plug-In . SVG Version: 6.00 Build 0)  -->
<svg version="1.1" id="Layer_1" xmlns="http://www.w3.org/2000/svg" xmlns:xlink="http://www.w3.org/1999/xlink" x="0px" y="0px"
	 viewBox="0 0 512.1 512.1" style="enable-background:new 0 0 512.1 512.1;" xml:space="preserve">
<style type="text/css">
	.st0{fill:#FFFFFF;}
</style>
<g>
	<g>
		<path class="st0" d="M33.6,125.9c-45.1,64.8-39.5,149.2-5,218.1c0.8,1.7,1.7,3.3,2.5,4.9l1.6,3.1l1,1.8l1.8,3.2
			c1.1,1.9,2.2,3.8,3.3,5.6l1.9,3.1c1.2,2,2.5,4,3.8,6l1.6,2.5c1.8,2.7,3.6,5.4,5.5,8l0.2,0.2l0.9,1.3c1.6,2.3,3.3,4.5,5,6.7
			l1.9,2.4c1.5,1.9,3.1,3.8,4.7,5.7l1.8,2.1c2.1,2.5,4.3,5,6.5,7.4l0.1,0.1l0.3,0.3c2.1,2.3,4.3,4.6,6.6,7l2.1,2.1
			c1.7,1.7,3.5,3.5,5.3,5.2l2.2,2c2.4,2.2,4.8,4.4,7.2,6.6l0.1,0.1l1.2,1.1c2.2,1.9,4.3,3.7,6.6,5.5l2.7,2.2
			c1.8,1.4,3.6,2.9,5.5,4.3l2.9,2.2c2,1.5,4.1,3,6.1,4.4l2.2,1.6l0.6,0.5c2,1.3,4,2.6,6,3.9l2.6,1.7c3.1,1.9,6.2,3.8,9.3,5.7
			l2.6,1.5c2.3,1.3,4.6,2.6,7,3.9c1.3,0.7,2.6,1.3,3.9,2c1.7,0.9,3.3,1.7,5,2.6l1.1,0.6l2,1c2.6,1.3,5.3,2.5,7.9,3.7l1.7,0.8
			c3.1,1.3,6.1,2.6,9.3,3.8l2.3,0.9c2.9,1.1,5.8,2.2,8.7,3.2l1.1,0.4c3.2,1.1,6.5,2.2,9.7,3.2l2.3,0.7c3.3,1,6.6,2.2,10.1,2.8
			c218.2,39.8,281.6-131.1,281.6-131.1c-53.2,69.4-147.7,87.7-237.3,67.3c-3.4-0.8-6.7-1.8-10-2.8l-2.5-0.7c-3.2-1-6.4-2-9.6-3.1
			l-1.3-0.5c-2.9-1-5.7-2.1-8.5-3.2l-2.4-0.9c-3.1-1.2-6.1-2.5-9.2-3.8l-1.8-0.8c-2.6-1.2-5.2-2.4-7.7-3.6l-2.2-1.1c-2-1-4-2-6-3
			c-1.3-0.7-2.7-1.4-4-2.1c-2.4-1.3-4.8-2.6-7.2-4l-2.4-1.3c-3.2-1.9-6.2-3.8-9.3-5.7l-2.5-1.7c-2.2-1.4-4.5-2.9-6.6-4.4l-2.1-1.5
			c-2.1-1.5-4.2-3-6.3-4.5l-2.8-2.1c-1.9-1.5-3.8-2.9-5.7-4.4l-2.5-2c-2.4-2-4.7-3.9-7.1-5.9l-0.8-0.7c-2.5-2.2-5-4.5-7.4-6.7
			l-2.1-2c-1.8-1.7-3.6-3.5-5.3-5.2l-2.1-2.1c-2.2-2.3-4.4-4.6-6.5-6.9l-0.3-0.4c-2.3-2.5-4.5-5-6.6-7.5l-1.7-2.1
			c-1.6-1.9-3.2-3.9-4.8-5.9l-1.7-2.2c-1.9-2.4-3.7-4.9-5.5-7.3C46.9,251.5,29.1,158,68.8,81.2 M173.7,71.2
			c-32.6,47-30.9,109.8-5.4,159.5c4.3,8.3,9.1,16.4,14.4,24.1c4.9,7,10.3,15.4,16.8,21c2.3,2.6,4.8,5.1,7.3,7.6l1.9,1.9
			c2.4,2.4,4.9,4.7,7.5,6.9l0.3,0.3l0.1,0.1c2.8,2.5,5.8,4.9,8.7,7.2l2,1.5c3,2.3,6,4.5,9.1,6.7l0.3,0.2c1.4,0.9,2.8,1.8,4.2,2.7
			l2,1.3c2.2,1.4,4.5,2.8,6.8,4.2l1,0.6c2,1.1,4,2.3,6,3.3l2.1,1.1c1.4,0.7,2.8,1.5,4.2,2.2l0.6,0.3c2.9,1.4,5.8,2.8,8.7,4.1
			l1.9,0.8c2.4,1,4.8,2,7.2,2.9l3.1,1.1c2.2,0.8,4.4,1.6,6.6,2.3l3,1c3.1,1,6.2,2.2,9.5,2.7C472,366.7,510.9,237,510.9,237
			c-35.1,50.5-103,74.6-175.4,55.8c-3.2-0.8-6.4-1.8-9.5-2.7l-2.9-0.9c-2.2-0.7-4.5-1.5-6.7-2.3l-3-1.1c-2.4-0.9-4.8-1.9-7.2-2.9
			l-1.9-0.8c-3-1.3-5.9-2.7-8.8-4.1c-1.5-0.7-2.9-1.5-4.4-2.2l-2.5-1.3c-1.9-1-3.7-2.1-5.6-3.1l-1.3-0.8c-2.3-1.3-4.5-2.7-6.7-4.1
			l-2-1.4c-1.5-1-2.9-1.9-4.4-2.9c-3.1-2.1-6.1-4.4-9.1-6.7l-2-1.6c-31.7-25-56.9-59.3-68.8-98.1c-12.5-40.2-9.8-85.4,11.9-122.1
			 M291.5,30.4c-19.2,28.3-21.1,63.5-7.8,94.7c14.1,33.2,42.9,59.2,76.6,71.6c1.4,0.5,2.8,1,4.2,1.5l1.9,0.6c2,0.6,3.9,1.3,6,1.7
			c93,18,118.3-47.7,125-57.4c-22.1,31.8-59.2,39.5-104.8,28.4c-3.6-0.9-7.6-2.2-11-3.4c-4.5-1.6-8.8-3.4-13.1-5.4
			c-8.1-3.9-15.8-8.6-22.9-14c-40.8-31-66.1-90-39.5-138.1"/>
	</g>
</g>
</svg>
