<?xml version="1.0" encoding="utf-8"?>
<!-- Generator: Adobe Illustrator 27.1.0, SVG Export Plug-In . SVG Version: 6.00 Build 0)  -->
<svg version="1.1" id="Layer_1" xmlns="http://www.w3.org/2000/svg" xmlns:xlink="http://www.w3.org/1999/xlink" x="0px" y="0px"
	 viewBox="0 0 512.1 512.1" style="enable-background:new 0 0 512.1 512.1;" xml:space="preserve">
<style type="text/css">
	.st0{fill:#F7DF1E;}
</style>
<rect x="129.3" y="128.9" width="345.6" height="361.4"/>
<path class="st0" d="M0,0v512.1h512.1V0H0z M278.7,399.4c0,49.8-29.2,72.5-71.8,72.5c-38.5,0-60.8-19.9-72.2-44l0,0l0,0l0,0
	l39.2-23.7c7.6,13.4,14.4,24.7,30.9,24.7c15.8,0,25.8-6.2,25.8-30.2V235.1h48.1V399.4z M392.5,471.9c-44.7,0-73.6-21.3-87.7-49.2
	l0,0L344,400c10.3,16.8,23.7,29.2,47.4,29.2c19.9,0,32.7-10,32.7-23.7c0-16.5-13.1-22.3-35.1-32l-12-5.2
	c-34.7-14.8-57.8-33.3-57.8-72.5c0-36.1,27.5-63.6,70.5-63.6c30.6,0,52.6,10.7,68.4,38.5l-37.5,24.1c-8.3-14.8-17.2-20.6-30.9-20.6
	c-14.1,0-23,8.9-23,20.6c0,14.4,8.9,20.3,29.6,29.2l12,5.2c40.9,17.5,63.9,35.4,63.9,75.6C472.2,448.2,438.2,471.9,392.5,471.9z"/>
</svg>
