<?xml version="1.0" encoding="utf-8"?>
<!-- Generator: Adobe Illustrator 27.1.0, SVG Export Plug-In . SVG Version: 6.00 Build 0)  -->
<svg version="1.1" id="Layer_1" xmlns="http://www.w3.org/2000/svg" xmlns:xlink="http://www.w3.org/1999/xlink" x="0px" y="0px"
	 viewBox="0 0 512.1 512.1" style="enable-background:new 0 0 512.1 512.1;" xml:space="preserve">
<style type="text/css">
	.st0{fill:#FFFFFF;}
</style>
<g>
	<g>
		<path class="st0" d="M233.2,216.3c-21.7,12.5-29.1,40.3-16.6,62.1c12.5,21.6,40.3,29.1,62.1,16.6c21.6-12.5,29.1-40.3,16.6-62.1
			C282.8,211.2,255,203.8,233.2,216.3L233.2,216.3z M436.9,265.6c-3-3.4-6.2-6.9-9.4-10.2c2.3-2.5,4.5-4.9,6.7-7.2
			c40.8-45.9,58.1-91.9,42.1-119.6C460.9,102,415.3,94,358.3,105.1c-5.6,1.1-11.2,2.4-16.8,3.8c-1-3.7-2.2-7.3-3.4-11
			c-19.3-58.2-50.6-96.2-82.6-96.2c-30.6,0-60.2,35.6-79.1,90.5c-1.9,5.4-3.6,10.8-5.2,16.4c-3.7-0.9-7.5-1.8-11.2-2.6
			C100,93.7,51.5,101.9,35.5,129.6c-15.2,26.5,0.7,69.8,38.9,113.7c3.8,4.4,7.7,8.6,11.6,12.7c-4.7,4.9-9.1,9.7-13.3,14.6
			c-37.3,43.1-52.4,85.8-37.1,112.3c15.8,27.3,63.6,36.3,121.7,24.7c4.7-0.9,9.4-2,14.1-3.1c1.7,6,3.6,11.8,5.6,17.7
			c18.8,53.8,48.3,88.2,78.8,88.2c31.5,0,63.1-37,82.3-93.1c1.5-4.4,3-9.1,4.3-13.7c6.1,1.5,12.1,2.8,18.2,4
			c56,10.6,100.5,2.3,115.7-24.2C492.1,356,475.9,310.2,436.9,265.6L436.9,265.6z M54.4,140.4c9.8-17.1,49.4-23.7,101.3-13
			c3.4,0.6,6.7,1.4,10.1,2.3c-5.1,22.4-8.6,45.1-10.6,68.1c-18.8,13.2-36.6,27.6-53.5,43.1c-3.8-3.9-7.4-7.8-10.8-11.8
			C58.1,191.5,45.2,156.4,54.4,140.4L54.4,140.4z M153.2,286.1c-13-9.8-25-19.9-36-30c10.9-10.1,22.9-20.2,36-29.9
			c-0.5,9.9-0.7,20-0.7,30C152.6,266.1,152.8,276.1,153.2,286.1L153.2,286.1z M153.2,386.3c-22.1,4.9-44.8,5.7-67.2,2.4
			c-12.4-1-23.8-7-31.6-16.7c-9.2-16.1,2.9-50.4,34.8-87.2c4-4.7,8.2-9.1,12.4-13.6c16.9,15.6,34.8,30.1,53.5,43.3
			c2.1,23.1,5.7,46.2,10.8,68.9C161.8,384.5,157.5,385.4,153.2,386.3L153.2,386.3z M333.9,181.8c-8.5-5.4-17.2-10.6-25.9-15.6
			c-8.6-5-17.3-9.7-26.1-14.3c15.1-6.4,29.9-11.8,44.2-16.2C329.4,150.9,332,166.4,333.9,181.8L333.9,181.8z M197.1,99.3
			c16.2-47.1,40.1-75.8,58.6-75.8c19.6,0,45.2,31,61.9,81.3c1.1,3.3,2.1,6.6,3.1,9.9c-21.9,6.8-43.4,15.1-64.3,24.7
			c-20.8-9.8-42.2-18.2-64.1-25C193.8,109.3,195.4,104.2,197.1,99.3L197.1,99.3z M186.8,135.4c15,4.8,29.6,10.1,44,16.4
			c-17.8,9.2-35.2,19.2-52.1,30C180.9,165.6,183.5,150,186.8,135.4L186.8,135.4z M178.8,330.3c8.4,5.5,17,10.6,25.7,15.6
			c8.8,5.2,17.8,10,26.8,14.7c-14.5,6.4-29.3,12-44.3,16.9C183.6,362.6,180.9,346.8,178.8,330.3L178.8,330.3z M317.6,410.3
			c-6.8,21.6-17.5,41.6-31.5,59.3c-7.1,10.2-18,17.1-30.2,19c-18.6,0-42.2-27.6-58.2-73.6c-1.9-5.5-3.7-10.9-5.3-16.5
			c21.9-7.1,43.5-15.7,64.3-25.6c21.1,9.6,42.7,18,64.9,24.8C320.2,402,319,406.2,317.6,410.3L317.6,410.3z M326.8,376.7
			c-14.5-4.5-29.5-10-44.8-16.5c8.5-4.5,17.3-9.3,26-14.3c9-5.3,17.7-10.5,26.2-16C332.6,345.6,330.1,361.2,326.8,376.7L326.8,376.7
			z M338.1,256c0,15.4-0.5,30.8-1.5,46.3c-12.5,8.4-25.7,16.7-39.4,24.6c-13.7,8-27.3,15.2-40.6,21.8c-14-6.7-27.8-13.9-41.3-21.7
			c-13.4-7.8-26.5-16-39.3-24.6c-1.2-15.4-1.7-30.9-1.8-46.4h0.1c-0.1-15.4,0.5-30.9,1.7-46.3c12.5-8.5,25.6-16.8,39.2-24.6
			c13.6-8,27.4-15.1,41-21.8c13.9,6.8,27.4,14,40.8,21.7c13.4,7.8,26.5,15.9,39.3,24.4C337.5,224.9,338.1,240.5,338.1,256L338.1,256
			z M362.5,126.5c48.9-9.5,85.7-3.2,95,12.8c9.8,17.1-4.3,54.7-39.5,94.3c-2,2.2-4,4.4-6.1,6.7c-17.2-15.6-35.5-29.9-54.6-43
			c-2-22.7-5.3-45.1-10.3-67.4C352.2,128.6,357.4,127.5,362.5,126.5L362.5,126.5z M359.2,225.3c12.9,9.4,25.2,19.6,37.2,30.2
			c-11.8,10.9-24.3,21.2-37.1,30.8c0.4-10.1,0.6-20.2,0.6-30.3C359.9,245.7,359.6,235.5,359.2,225.3L359.2,225.3z M457.5,372.5
			c-9.2,16.1-45,22.8-92.9,13.7c-5.5-1.1-11.1-2.3-16.9-3.7c4.8-22.6,8.1-45.3,9.8-68.3c19.1-13.3,37.3-27.8,54.3-43.6
			c3,3.1,5.8,6.2,8.5,9.3c15.3,16.7,27.4,36,35.7,56.9C461.5,348,462,361,457.5,372.5L457.5,372.5z M457.5,372.5"/>
	</g>
</g>
</svg>
