<?xml version="1.0" encoding="utf-8"?>
<!-- Generator: Adobe Illustrator 27.1.0, SVG Export Plug-In . SVG Version: 6.00 Build 0)  -->
<svg version="1.1" xmlns="http://www.w3.org/2000/svg" xmlns:xlink="http://www.w3.org/1999/xlink" x="0px" y="0px"
	 viewBox="0 0 600 552.9" style="enable-background:new 0 0 600 552.9;" xml:space="preserve">
<style type="text/css">
	.st0{fill:#FFFFFF;}
	.st1{opacity:0.5;fill:#FFFFFF;}
</style>
<g id="BG">
</g>
<g id="Object">
	<g>
		<path id="XMLID_57_" class="st0" d="M600,173.1c0-0.5,0-0.9,0-1.4C600,82.1,535.2,0,437.7,0C360.2,0,315.3,55.7,300,107.8l0,0
			C284.7,55.7,239.8,0,162.3,0C64.8,0,0,82.1,0,171.7c0,0.5,0,0.9,0,1.4c-0.5,19.5,0,217.9,299.9,379.7v0c0,0,0,0,0,0c0,0,0,0,0,0
			c0,0,0,0,0,0c0,0,0,0,0,0v0C600,391.1,600.5,192.6,600,173.1z"/>
		<path class="st1" d="M191.9,484.2c30.8,23.2,66.5,46.3,108,68.6v0c0,0,0,0,0,0c0,0,0,0,0,0c0,0,0,0,0,0c0,0,0,0,0,0v0
			C600,391.1,600.5,192.6,600,173.1c0-0.5,0-0.9,0-1.4c0-11.3-1-22.6-3.1-33.5C502.4,366.1,314.8,452,191.9,484.2z"/>
		<path class="st1" d="M16.6,192.1c0,0-2.1-170.8,175.3-172.8C191.9,19.3,71.2,48.6,16.6,192.1z"/>
	</g>
</g>
</svg>
