<?xml version="1.0" encoding="utf-8"?>
<!-- Generator: Adobe Illustrator 27.1.0, SVG Export Plug-In . SVG Version: 6.00 Build 0)  -->
<svg version="1.1" id="Layer_1" xmlns="http://www.w3.org/2000/svg" xmlns:xlink="http://www.w3.org/1999/xlink" x="0px" y="0px"
	 viewBox="0 0 485.2 298.2" style="enable-background:new 0 0 485.2 298.2;" xml:space="preserve">
<style type="text/css">
	.st0{fill:#FFFFFF;}
</style>
<g>
	<path class="st0" d="M242.9,146.9c2.1-1.8,3.9-4,5.6-6.8c1.7-2.7,3.1-5.7,4.1-8.7s1.7-5.7,2-7.9c-1.3,0.9-3,2.6-5.1,5
		c-2.1,2.5-4.1,5.1-6,7.9c-2,2.8-3.6,5.4-5.1,7.9c-1.4,2.4-2.1,4-2.2,4.6C238.6,149.3,240.8,148.7,242.9,146.9z"/>
	<path class="st0" d="M299.9,142.1c1.2-1.4,2.4-2.9,3.5-4.6c1.1-1.7,2.1-3.4,3-5.4c0.8-2.1,1.5-4,2-5.7c0.5-1.7,0.9-3.4,1.2-4.9
		c-0.9,0.6-2,1.5-3.1,2.7c-1.1,1.2-2.4,2.8-3.9,4.7c-1.5,1.7-2.8,3.3-4.1,5.1c-1.3,1.7-2.5,3.5-3.5,5.3c-2.4,3.7-3.6,5.9-3.7,6.5
		C294.2,146.2,297.1,145,299.9,142.1z"/>
	<path class="st0" d="M484.7,154.2c-4.4-40.8-35.5-85-82.1-112.3C350.7,11.6,280.3,0.5,217.8,0C118.8-0.7,3.9,15.5,0.1,148
		c-1.8,60.7,40.1,106.2,94.6,128.5c64.6,26.5,146.5,23.6,186.5,17.8C354.8,283.8,494,240.4,484.7,154.2z M365.8,215.5
		c-1.6,2.7-4.6,3.5-8.8,2.5c-2.2-0.6-4.3-1.5-6.3-2.9c-2-1.3-3.9-3.1-5.8-5.2c-3.7-4.2-4.8-10-3.5-17.2c1.3-4.6,2.8-9.6,4.6-14.9
		c1.8-5.3,4-10.8,6.4-16.6c3-7.4,5.4-13.6,7.1-18.5c1-3.1,1.7-6,2.1-8.8c0.4-2.8,0.3-5.3-0.3-7.5c-0.8-4.2-4.4-7.5-10.6-10
		c-0.7,11.3-5,25-13.1,41.3c-7.9,16.8-16.5,28.8-25.8,36.1c-1.1,0.8-1.8,1.2-2.4,1.3c-0.1,0-0.2,0.1-0.2,0.2
		c-0.3,0.1-0.5,0.2-0.6,0.2c-0.1,0-0.3,0.1-0.6,0.2c-4.3,1.1-9.5,0.5-15.7-1.8c-6.4-2.6-11.9-5.9-16.3-9.7c-4.7-3.9-7.4-8.4-8-13.4
		c0-2.3,0-4.6,0.2-6.8c-2.1,2.8-4.4,5.6-6.8,8.2c-4,4.3-8.2,8.2-12.5,11.8c-4.4,3.5-8.7,6.4-12.9,8.6c-2,1-4.1,1.3-6.2,1
		c-2.2-0.3-4.4-1-6.6-2c-2.2-1-4.2-2.2-5.9-3.6c-1.8-1.3-3.2-2.6-4.4-3.8c-2.4-2.7-3.7-6.2-3.8-10.5c0-0.5,0-1,0-1.5
		c-2.5,2.9-4.9,5.6-7.3,7.8c-3.2,3-6,5.2-8.5,6.4c-1.7,0.9-3.7,1.2-6.1,0.9s-4.6-0.8-6.8-1.6c-2.2-0.8-4.1-1.9-5.8-3.3
		c-1.7-1.3-2.7-2.7-3-4c-0.5-2.2-0.3-5.1,0.4-8.5c0.7-3.5,1.7-7,2.9-10.4c1.2-3.5,2.3-6.6,3.4-9.4c1.1-2.8,1.8-4.7,2.1-5.6
		c-2.6,2.1-5.7,5.4-9.3,9.7c-3.5,4.3-7.1,9-10.6,13.9c-3.5,5-6.8,9.8-9.8,14.5c-3,4.7-5.3,8.6-6.8,11.5c-0.7,1.3-2,1.9-3.8,1.9
		c-1.9,0-3.8-0.4-5.8-1.1c-2-0.8-3.7-1.7-5.2-2.9c-1.5-1.2-2-2.4-1.6-3.7c1-3.4,2.6-7.9,4.7-13.5c-5.5,6.4-11.2,12-16.9,16.9
		c-8,6.8-16.2,11.9-24.5,15.2c-8.3,3.4-16.8,4.4-25.5,3.2c-5.6-0.7-10.1-2.6-13.6-5.9c-3.5-3.3-6.1-7.4-7.9-12.4
		c-1.8-5-2.7-10.8-2.9-17.3c-0.2-6.5,0.4-13.3,1.6-20.6c1.4-8.8,3.7-17.8,6.9-27.1c3.2-9.3,7-18.2,11.5-26.9
		c4.4-8.7,9.4-16.8,15-24.1c5.6-7.4,11.5-13.5,17.7-18.4c6.2-4.9,12.6-8.3,19.2-10.2c6.6-1.9,13.2-1.7,19.7,0.7
		c4.1,1.4,7,4.3,8.6,8.7c1.6,4.4,2.4,9.6,2.2,15.6c-0.1,6-1,12.6-2.6,19.7c-1.6,7.1-3.6,14.1-6,21.1c-2.4,6.9-5,13.5-7.9,19.7
		c-2.9,6.2-5.7,11.5-8.4,15.8c-0.8,1.1-2.4,1.6-4.7,1.4c-2.3-0.2-4.6-0.9-6.7-2.1c-2.1-1.2-3.7-2.8-4.7-4.7
		c-1.1-1.9-0.6-3.9,1.2-6.1c1.3-1.7,3.2-4.7,5.5-9c2.3-4.3,4.7-9.3,7.2-14.9c2.5-5.6,4.8-11.4,6.9-17.5c2.1-6.1,3.6-11.7,4.5-16.9
		c0.9-5.2,1-9.4,0.3-12.8c-0.7-3.4-2.6-5.2-5.7-5.6c-3.1-0.2-6.7,1.5-10.7,5.1c-4,3.6-8.2,8.4-12.5,14.5c-4.3,6.1-8.5,13-12.7,20.9
		c-4.2,7.9-7.9,16-11.3,24.3c-3.4,8.3-6.2,16.6-8.4,24.7c-2.2,8.1-3.5,15.4-3.8,21.9c-0.3,6.5,0.5,11.8,2.5,16.1
		c2,4.3,5.4,6.7,10.3,7.4c4.5,0.6,9.3-0.1,14.4-2.2c5-2.1,10.1-4.9,15.1-8.6c5-3.6,10-7.9,14.8-12.8c4.9-4.9,9.4-9.8,13.5-14.7
		c4.1-5,7.9-9.8,11.2-14.4c1-1.4,1.9-2.7,2.8-4c1.6-3.6,3.3-7.1,5-10.8c3.9-8.3,7.9-16.1,11.9-23.4c4-7.4,7.9-13.9,11.8-19.7
		c3.8-5.8,7.4-10.1,10.5-12.9c1.7-1.6,3.8-2.3,6.3-1.9c2.5,0.4,4.7,1.2,6.7,2.5c2,1.3,3.6,2.8,4.6,4.7c1,1.8,1,3.4,0.1,4.7
		c-1.7,0.7-4.5,3.3-8.3,7.8c-3.8,4.4-8,10.1-12.7,17c-4.6,6.9-9.3,14.7-14.1,23.4c-4.8,8.7-8.9,17.7-12.3,27.1c2.1-2.9,4.5-6,7-9.3
		c2.5-3.2,5.1-6.4,7.7-9.4c2.6-3,5.2-5.8,7.8-8.3c2.6-2.5,5.1-4.4,7.4-5.7c1.7-1,3.7-1.3,6-0.9c2.3,0.4,4.3,1.2,6.3,2.4
		c1.9,1.2,3.4,2.7,4.4,4.4c1,1.7,1.1,3.4,0.3,5.1c-1.2,2.6-2.8,5.6-4.6,9.2c-1.8,3.6-3.6,7.3-5.3,11.2c-1.7,3.9-3.2,7.7-4.6,11.4
		c-1.3,3.7-2,6.9-2.1,9.6c3-1.5,6.1-3.6,9.1-6.3c3-2.7,6-5.9,9-9.5c2.9-3.6,5.8-7.5,8.5-11.8c1.1-1.7,2.2-3.4,3.2-5.2
		c2.5-5.2,5.4-10.2,8.5-14.8c3.2-4.7,6.5-8.9,9.9-12.4c3.5-3.5,6.7-6.1,9.7-7.7c1.8-0.9,3.5-1.3,5.1-1.3c1.6,0,3.2,0.3,4.8,0.9
		c1.7,0.6,3.4,1.5,5.1,2.7c1.7,1.1,3.7,2.4,5.8,3.7c3.1,2,4.4,4.5,4.1,7.5c0,1.4-0.7,3.9-1.8,7.5c-1.2,3.6-2.8,7.4-4.9,11.3
		c-2.1,3.9-4.7,7.5-7.7,10.9c-3,3.4-6.3,5.6-10,6.7c-2.6,0.6-4.9,0.7-6.8,0.4c-1.9-0.3-4.1-1-6.4-2.1c-0.7,1.3-1.4,3.2-2.3,5.7
		c-0.8,2.5-1.5,5.1-1.9,7.6c-0.5,2.6-0.6,4.9-0.6,6.9c0.1,2,0.8,3.2,2.2,3.5c2.1,0.4,5-0.6,8.9-3.1c3.9-2.5,8-5.8,12.2-9.9
		c4.2-4.1,8.5-8.8,12.6-14c4.1-5.2,7.5-10.3,10.1-15.3c0.3-0.3,0.7-0.5,1.1-0.5c1.1-2.3,2.3-4.5,3.6-6.7c3.5-6,7-11,10.6-14.9
		c3.5-3.9,7.2-6.8,11-8.7c2.9-1.6,5.8-1.9,8.6-1c1.4,0.6,2.9,1.2,4.3,2.1c1.5,0.8,3.1,1.8,4.9,2.8c0.5,0.3,1,0.6,1.5,0.9
		c0.5,0.3,1,0.6,1.5,0.9c2.9,1.8,4.4,4.1,4.3,6.9c-0.3,2.5-1.4,6.1-3.2,10.8c-1.1,2.6-2.4,5.1-3.8,7.5c-1.4,2.4-3.1,4.8-4.9,7.1
		c-3.6,4.8-7.9,8-12.7,9.4c-2.5,0.8-4.7,1.1-6.6,0.6c-1-0.3-2.1-0.5-3.1-0.8c-1-0.2-2.1-0.7-3.1-1.3c-3.1,9.3-3,16.3,0.3,21.2
		c3.1,4.9,6.8,6.7,11,5.5c8.9-3.4,19.3-16.8,31.3-40.3l0-0.2c0.7-1.4,1.4-3.1,2.1-5c0.3-1,0.6-1.8,0.8-2.4c0.3-0.6,0.4-1,0.4-1.3
		c3.8-11.6,2.2-19.7-4.7-24.2c-1.7-1.1-2.1-2.7-1.4-4.9c0.8-2.3,2.2-4.5,4.1-6.5c2.4-2.1,4.4-3.6,6.1-4.3c2.2-0.9,4-0.5,5.2,1.1
		c0.9,1.6,1.6,2.8,2.2,3.6c1.1,2,2.4,3.8,4,5.4c1.4,1.6,4.1,3.5,8.2,5.7c3.8,1.9,7.2,3.9,10.2,6.1c2.9,2.1,5.5,4.4,7.6,6.6
		c4,4.5,5.2,11.4,3.4,20.7c-0.4,2.2-1.2,4.9-2.3,8.1c-1.1,3.2-2.5,6.9-4.2,11.2c-1.5,4-3,8-4.5,12.1c-1.5,4.1-2.8,8.3-4.1,12.5
		c-2.8,8.8-4.3,16-4.4,21.7C358.8,212,361.1,215.3,365.8,215.5z M457,147.3c-0.2,0.1-0.4,0.1-0.7,0c-0.3-0.1-0.6-0.2-1.1-0.3
		c-0.5-0.1-1.1-0.2-1.8,0c-2,0.3-4.8,1.5-8.6,3.6c-3.8,2-7.8,4.3-11.8,6.9c-4.1,2.6-7.9,5.1-11.4,7.5c-3.5,2.4-5.8,4.2-6.8,5.4
		c0.6,1.1,1.2,2,1.9,3c0.6,0.9,1.2,1.9,1.9,3c1.9,3.5,2.6,7.1,2.3,10.6c-0.3,3.5-1.5,6.9-3.5,10.1c-2,3.3-4.5,6.3-7.7,9
		c-3.2,2.8-6.5,5.1-10.1,6.9c-2.4,1.2-5,2.1-7.9,2.6c-2.9,0.5-5.8,0.6-8.6,0.4c-2.8-0.3-5.4-0.9-7.7-1.8c-2.4-1-4.2-2.3-5.5-4.1
		c-1.3-1.8-2-3.9-2-6.4c0-2.5,1-5.3,3-8.5c3.1-4.9,7.1-9.4,11.9-13.5c4.8-4.2,9.8-8.1,14.8-11.7c-2.2-3.4-4.5-6.7-6.9-9.8
		c-2.3-3.1-3.9-6.5-4.7-10.3c-0.7-3.4-0.8-6.8-0.2-10.2c0.5-3.4,1.6-6.7,3.1-9.7c1.5-3.1,3.4-5.9,5.8-8.5c2.3-2.6,4.9-4.8,7.8-6.7
		c1.4-0.9,3.1-1.2,5.1-1.1c1.9,0.1,3.9,0.5,5.8,1.2c1.9,0.7,3.7,1.5,5.3,2.5c1.6,0.9,2.8,1.8,3.7,2.4c3.5-5.4,6.6-9.3,9.1-11.9
		c2.6-2.6,4.7-4.6,6.3-6c0.9-0.6,2.2-0.4,3.7,0.6c1.5,1,3,2.3,4.3,4c1.3,1.7,2.3,3.3,3,5c0.7,1.7,0.5,2.9-0.4,3.5
		c-2.1,1.4-4.6,3.6-7.6,6.6c-2.9,3-5.7,6.3-8.2,9.7c-2.5,3.4-4.5,6.8-6,10.1s-1.7,6-0.9,8.1c-0.7,0.2-1.5,0.2-2.6-0.3
		c-1.1-0.4-2.2-1-3.3-1.8c-1.1-0.8-2.1-1.8-2.9-3.1c-0.9-1.3-1.5-2.6-1.8-4c-0.2-1-0.2-2.2,0.1-3.6c0.3-1.4,0.7-2.7,1.1-4
		c0.4-1.3,0.9-2.5,1.5-3.7c0.5-1.2,1-2,1.2-2.7c-2.5-0.2-4.8,1.1-7,3.8c-2.2,2.7-3.9,6-5,9.9c-1.1,3.9-1.6,7.9-1.5,12.1
		c0.2,4.2,1.4,7.8,3.8,10.7c2.5-1.5,5.4-3.4,8.8-5.6s6.8-4.5,10.2-6.7c3.4-2.2,6.8-4.1,10.2-5.7c3.3-1.6,6.3-2.6,8.7-2.9
		c1.8-0.2,3.9,0.3,6.2,1.5c2.3,1.2,4,2.3,5,3.2C457.6,146.9,457.2,147.2,457,147.3z"/>
	<path class="st0" d="M390.8,190.9c-3.7,3.7-6.4,8-8.2,12.7c1.8-0.1,4-1,6.6-2.9c2.6-1.8,5-4,7.2-6.5c2.2-2.5,4-5.2,5.3-7.8
		c1.3-2.7,1.6-4.9,0.8-6.6C398.3,183.5,394.4,187.2,390.8,190.9z"/>
</g>
</svg>
