<?xml version="1.0" encoding="utf-8"?>
<!-- Generator: Adobe Illustrator 27.1.0, SVG Export Plug-In . SVG Version: 6.00 Build 0)  -->
<svg version="1.1" id="Layer_1" xmlns="http://www.w3.org/2000/svg" xmlns:xlink="http://www.w3.org/1999/xlink" x="0px" y="0px"
	 viewBox="0 0 500 500" style="enable-background:new 0 0 500 500;" xml:space="preserve">
<style type="text/css">
	.st0{fill:#FA3E00;}
	.st1{fill:#231F20;}
</style>
<rect x="-0.2" y="-0.2" class="st0" width="500.2" height="500.2"/>
<g>
	<path class="st1" d="M177.3,210.6c-1.9-6-4.2-11.9-5.8-18c-1.8-6.8-4.1-13.8-4.4-20.7c-0.8-17.9,6.8-32.7,19.6-44.8
		c15.7-14.7,34.7-22.2,55.9-24c25.3-2.2,48.5,3.9,68.6,19.7c17.7,13.9,33,40.4,19.5,70.7c-2.1,4.8-3.6,9.9-5.3,14.9
		c0.3,0.1,0.6,0.3,0.8,0.4c29.2-45.8,58.3-91.7,87.7-137.9c-109.5,0-218.4,0-327.9,0c30.5,47.9,60.8,95.5,91.1,143.1
		C177.6,212.7,177.6,211.6,177.3,210.6z"/>
	<path class="st1" d="M362.6,292.6c-1.4,0.3-3.4,1.5-3.7,2.7c-1.3,4.4-4.4,5.3-8.3,5.4c-16.3,0-32.6,0-48.9,0.1c-1.2,0-2.4,0-3.7,0
		c0,2.4,0,4.4,0,6.4c0,4.5-0.2,4.7-4.8,5.1c-1.5-2.7,1.3-6.6-2.3-8.7c-0.5,2.7-0.4,5.3-0.6,7.9c-0.1,0.9-0.7,2.3-1.4,2.6
		c-2.2,0.8-4.5,1.2-7.2,1.8c0-3.1,0.1-5.7-0.1-8.2c-0.1-0.9-0.7-1.8-1.1-2.8c-0.4,1-1.2,1.9-1.3,2.9c-0.2,2.1,0.1,4.3-0.1,6.4
		c-0.1,0.9-0.9,2.3-1.6,2.4c-3.2,0.7-6.6,1-10.2,1.6c0-3.4,0.1-6.2-0.1-9c0-0.8-0.7-1.5-1.1-2.3c-0.4,0.7-1.2,1.5-1.3,2.2
		c-0.1,3-0.1,6-0.1,9.3c-4,0.2-7.5,0.4-11.3,0.7c0-3.8,0-6.9,0-10.2c-0.8,0-1.8,0-1.8,0.1c-0.4,3.3-0.7,6.5-1,9.7c-4,0-7.9,0-12.2,0
		c0-4.2,0-7.9,0-11.7c-0.4-0.1-0.9-0.1-1.3-0.2c-2.9,3.3,0.1,8-1.8,11.7c-2.9-0.4-5.9-0.9-9.1-1.3c0-3.4,0.1-6.4-0.1-9.4
		c0-0.8-0.9-1.6-1.5-2.4c-0.4,0.2-0.7,0.3-1.1,0.5c0,3.5,0,6.9,0,10.8c-1.8-0.3-3.2-0.7-4.6-0.9c-3.6-0.3-5.2-2-4.6-5.7
		c0.3-1.8,0.2-3.6,0-5.4c-0.1-0.7-1-1.3-1.5-2c-0.3,0.2-0.7,0.3-1,0.5c0,3.4,0,6.8,0,10.3c-8.2-2.4-6.7-1.2-6.3-11.9
		c-0.7-0.1-1.1-0.2-1.6-0.2c-27.8-0.1-55.6-0.3-83.5-0.3c-10,0-19.7,1.7-28.8,6.4c-4.6,2.4-9.6,3.9-14.6,5.4
		c-3.9,1.2-8.1,1.7-12.5,2.5c7.6,12,16.8,20.9,31.7,21.2c16.8,0.3,33.7,0.6,50.5,0.7c64.1,0.3,128.3,0.6,192.4,0.7
		c10.8,0,20.8,7.5,17.6,20.9c-1.2,5-1.8,10.2-2.5,15.4c-0.3,2.5,0.8,4.6,3.4,5.1c2.2,0.4,4.5-0.2,5.1-2.8c1.9-7.5,4.2-15,5.2-22.7
		c1.4-10.5,2-21.1,2.5-31.7c0.4-9.7,0.1-19.3,0.1-29.6C367.5,292.5,365,292.2,362.6,292.6z"/>
	<path class="st1" d="M171.5,290.2c4.2,6.4,8.3,9.3,15.9,8.4c6.1-0.7,12.3-0.1,18.2-0.1c2.1-7.4,4.1-14.3,6.1-21.7
		c-3.6,0.9-6.9,1.9-10.1,2.6c-7.6,1.6-14.7,0.9-19.5-5.9c-2.3-3.3-3.4-7.5-4.4-11.4c-1.1-4.4-1.8-8.8-5.8-11.9
		c-0.9-0.7-1.4-2-1.8-3.2c-2.1-7.2,1.1-12.7,5.8-17.7c2.6-2.7,3.1-6.7,1.1-9.8c-26.7-42-53.5-84.1-80.3-126.1
		c-0.7-1.1-2.6-2.1-4-2.1c-16.5-0.1-33-0.1-49.5-0.1c-0.8,0-1.7,0.2-2.8,0.3c0.9,1.4,1.6,2.4,2.2,3.5
		C85.8,160,128.9,225,171.5,290.2z"/>
	<path class="st1" d="M402.4,94.2c-25,39.5-50.2,79-75.3,118.4c-4.7,7.4-4.2,13.4,1.9,19.7c5.6,5.9,5.8,12.6,0.9,19.2
		c-1.8,2.5-3.1,5.5-4.3,8.4c-1.3,3.1-2,6.5-3.3,9.6c-3.2,8-9.1,11.6-17.7,10.4c-4.6-0.6-9.1-2-13.7-3c2,6.9,3.9,13.8,6,21.1
		c7.7,0,15.2-0.1,22.8,0.1c2.5,0.1,3.8-0.8,5.1-2.8c44.1-66.9,88.3-133.7,132.4-200.6c0.6-1,1.2-2,2.1-3.5c-1.7,0-2.8,0-3.9,0
		c-15.8,0-31.7,0.1-47.5-0.1C405.4,91.1,403.9,91.9,402.4,94.2z"/>
	<path class="st1" d="M327.2,340.8c-37.2-0.1-74.4-0.2-111.6-0.4c-39.6-0.2-79.1-0.7-118.7-1c-8.2-0.1-15.8-2.4-21.8-7.9
		c-4.4-4.1-8-9.1-12-13.7c-0.7-0.8-1.8-2-2.6-2c-6.9,0.6-13.9,1.4-21.1,2.3c0.4,0.8,0.5,1.3,0.8,1.7c6.3,8.3,13,16.2,21.6,22.4
		c14,10,29.9,14.1,46.7,15.4c31.6,2.6,63.3,1.1,94.9,0.8c4.6,0,8.6-1.8,11.8-5.2c4.1-4.3,4.8-4.3,8.7,0.1c3.5,3.9,4.1,4,7.7,0.3
		c4.7-4.7,5.7-4.7,10.3,0.3c0.3,0.3,0.6,0.7,0.9,1c2.5,2.6,4,2.6,6.6,0.1c2-1.9,4.1-3.8,7.1-6.7c1.6,2.2,2.8,4.1,4.3,5.8
		c2.9,3.2,3.9,3.2,6.8,0c0.5-0.6,1-1.2,1.6-1.8c3.2-3.5,4.3-3.5,7.6,0.1c5.3,5.9,5,6.4,10.4,0c3.7-4.4,5.4-4.3,8.8,0.6
		c2,3,4.6,5,8.2,5.4c3.6,0.4,7.2,0.5,10.8,0.8c3.6,0.3,5.8-1.1,6.9-4.6c1.6-5.1,3.6-9.9,9-13.8C328.9,340.8,328,340.8,327.2,340.8z"
		/>
	<path class="st1" d="M250,413.8c-12.4-18.7-24.5-37-36.1-54.7c-5.6,1.1-10.6,2.1-16,3.1c17.4,26.3,34.7,52.5,52.1,78.9
		c17.7-26.8,35.2-53.2,52.2-79c-3.9-3.3-7.5-6.4-11.5-9.9C277.3,372.5,263.8,392.9,250,413.8z"/>
	<path class="st1" d="M407.2,268.2c1.2,0,2.8-0.9,3.5-1.9c8-10.3,15.8-20.6,23.7-31c0.5-0.7,0.9-1.4,1.4-2.2
		c-0.5-0.2-0.7-0.3-0.9-0.3c-21.1,0-42.3-0.1-63.4,0c-0.9,0-2.2,0.6-2.8,1.4c-7.4,11.1-14.7,22.2-22.4,33.8c1.2,0.1,1.7,0.2,2.2,0.2
		C368.1,268.2,387.7,268.3,407.2,268.2z"/>
	<path class="st1" d="M93.8,268.3c18.7-0.1,37.3,0,56,0c1.1,0,2.2,0,4.1,0c-7.6-11.5-14.7-22.2-21.7-33c-1.2-1.8-2.4-2.5-4.6-2.5
		c-20.1,0.1-40.3,0-60.4,0.1c-0.9,0-1.9,0.2-3.3,0.3c8.5,11.2,16.8,21.9,24.9,32.8C90.1,267.6,91.6,268.3,93.8,268.3z"/>
	<path class="st1" d="M454.8,193c-19,0-38-0.1-57,0.1c-1.1,0-2.7,1.1-3.3,2.1c-6.9,10.3-13.8,20.7-20.6,31.1
		c-0.4,0.7-0.7,1.5-1.2,2.5c14.3,0,28.3,0,42.2,0c4.7,0,10.2,1.3,14-0.6c3.8-1.9,6.1-7.1,8.9-10.8c6-7.9,12-15.8,18.3-24
		C455.2,193.1,455,193,454.8,193z"/>
	<path class="st1" d="M73.5,228.6c12.4,0.1,24.9,0.1,37.3,0.1c5.4,0,10.8,0,16.9,0c-7.9-11.9-15.2-23.1-22.8-34.3
		c-0.6-0.9-2.4-1.4-3.7-1.4c-18.1-0.1-36.2-0.1-54.3-0.1c-0.9,0-1.7,0-2.9,0c0.4,0.8,0.5,1.2,0.8,1.6c8.3,10.9,16.5,21.8,24.9,32.6
		C70.5,228,72.3,228.6,73.5,228.6z"/>
	<path class="st1" d="M53.9,188.8c14.7,0.1,29.4,0.1,44.1,0c0.9,0,1.9-0.1,3-0.2c-0.2-0.6-0.3-1-0.5-1.2
		c-7.1-10.8-14.1-21.6-21.4-32.2c-0.7-1-2.6-1.7-3.9-1.7c-13.2-0.1-26.5-0.1-39.7-0.1c-3.6,0-7.2,0-11.6,0c9,11.9,17.5,23,26.1,34.1
		C50.8,188.4,52.6,188.8,53.9,188.8z"/>
	<path class="st1" d="M475.1,153.5c-17.2-0.1-34.4-0.1-51.6-0.1c-0.8,0-1.9,0.7-2.4,1.4c-7.4,11.1-14.7,22.2-22.3,33.7
		c0.8,0.2,1.1,0.3,1.4,0.3c15.6,0,31.2,0.1,46.8-0.1c1.3,0,2.8-1.2,3.7-2.3c7.2-9.2,14.2-18.5,21.2-27.7c1.2-1.6,2.4-3.2,3.5-4.7
		C475.2,153.7,475.2,153.5,475.1,153.5z"/>
	<path class="st1" d="M281.7,360.6c-1.7-1.3-3.3-2.3-4.6-3.6c-1.5-1.3-2.7-2.9-3.7-3.9c-3.3,2.2-6.3,5.7-9.2,5.7c-3,0-6.1-3.4-8.7-5
		c-3.2,1.9-6.4,5.5-9.5,5.4c-3.3-0.1-6.4-3.8-9.6-5.8c-2.7,1.8-5.6,5.2-8.5,5.2c-2.9,0.1-5.9-3.3-9.1-5.3c-0.7,0.8-1.9,2-3.1,3.4
		c11.4,17.2,22.7,34.4,34.3,51.9C260.8,392.3,271.3,376.3,281.7,360.6z"/>
	<path class="st1" d="M451.5,113.5c-2.3,0-3.7,0.7-4.9,2.6c-6.6,10.1-13.3,20.2-19.9,30.3c-0.5,0.8-1,1.7-1.6,2.9
		c14.4,0,28.4,0,42.4-0.1c1,0,2.2-1,2.8-1.9c3.2-4,6.2-8,9.3-12.1c5.3-7,10.6-14,16.5-21.7C480.6,113.6,466,113.6,451.5,113.5z"/>
	<path class="st1" d="M33.7,149.3c13,0.1,26,0.1,39,0c0.7,0,1.4-0.2,2.4-0.3c-7.6-11.5-15-22.8-22.5-33.9c-0.6-0.9-2.2-1.4-3.4-1.4
		c-5.9-0.1-11.7-0.1-17.6-0.1c-8.9,0-17.8,0-27.5,0c9.2,12,17.8,23.3,26.5,34.6C31,148.9,32.6,149.2,33.7,149.3z"/>
	<path class="st1" d="M309.9,250.1c0.6-1.2,1.2-2.5,1.5-3.8c2.8-11.3,2.4-12.7-8.4-17c-2.8-1.1-5-0.9-7.6,0.5
		c-7.7,4-15.8,6.6-24.3,8.1c-4,0.7-7.7,2.9-9.9,7.3c11.3,6.5,22.6,11.5,35.3,12.3C304,258,306.5,256.8,309.9,250.1z"/>
	<path class="st1" d="M465.6,310.1c-0.3-5.6-2.6-7.7-8.1-7.6c-2.8,0.1-5.6,0.1-8.5,0.2c-5,0.2-8.3,3.2-8.5,8.3
		c-0.2,5.3-0.1,10.6,0,15.9c0,2.5,1.2,4.3,3.7,5c3.9,1.2,7.7,2.5,11.6,3.6c4.6,1.4,7,0.6,8.4-4.1c1.2-4,1.3-8.4,1.9-12.6
		c-0.2,0-0.4-0.1-0.6-0.1C465.6,316,465.7,313,465.6,310.1z"/>
	<path class="st1" d="M157.1,298.2c5.3,0.1,10.6,0.1,16.6,0.1c-5.7-8.6-11-16.7-16.4-24.8c-0.4-0.6-1.2-1.2-1.8-1.2
		c-5.5-0.1-10.9-0.1-17-0.1c5.7,8.7,11,16.8,16.4,24.8C155.3,297.7,156.3,298.2,157.1,298.2z"/>
	<path class="st1" d="M343.9,272.7c-3.3,1.8-5.1,6.7-7.4,10.2c-3.2,4.8-6.4,9.7-9.9,15c5.9,0,11.2,0.1,16.5-0.1c0.8,0,2-0.6,2.4-1.3
		c5.3-7.8,10.5-15.8,16.1-24.3c-2.3,0-3.8,0-5.4,0C352,272.3,347.1,271,343.9,272.7z"/>
	<path class="st1" d="M216.6,266.7c14.9,0.1,27.2-12.1,27.3-27c0.1-14.9-12-27.2-27-27.2c-15.1-0.1-27.2,11.8-27.3,26.9
		C189.6,254.3,201.7,266.6,216.6,266.7z M216.7,215.1c13.6,0,24.6,11,24.5,24.5c-0.1,13.4-11.1,24.3-24.5,24.3
		c-13.4,0-24.3-11-24.3-24.5C192.4,226,203.2,215.1,216.7,215.1z"/>
	<path class="st1" d="M247.3,274.2c2.7-2.8,5.9-2.7,8.4,0.2c2.2,2.5,4.8,4.5,7.2,6.8c-0.5-10.5-3.3-19.6-11-26.5
		c-7.2,4.3-13.5,17.9-12.1,26.7C242.5,278.8,245,276.6,247.3,274.2z"/>
	<path class="st1" d="M424.4,309.3c-0.2-3.4-1.8-4.6-5.3-4.7c-3.5,0-5.4,1.2-5.5,4.5c-0.2,6.1-0.2,12.2,0,18.2
		c0.1,3.3,2,4.6,5.5,4.5c3.5,0,5.1-1.3,5.3-4.7c0.2-2.9,0-5.9,0-8.8C424.4,315.4,424.6,312.3,424.4,309.3z"/>
	<path class="st1" d="M397.6,309.3c-0.1-3.3-1.7-4.7-5.3-4.7c-3.6-0.1-5.4,1.3-5.5,4.5c-0.2,6.1-0.1,12.2,0,18.2
		c0.1,3.2,1.9,4.6,5.4,4.6c3.5,0,5.2-1.4,5.3-4.7c0.1-2.9,0-5.9,0-8.8C397.6,315.4,397.7,312.4,397.6,309.3z"/>
	<path class="st1" d="M437.7,309.2c0-3.3-2-4.5-5-4.6c-3.6-0.1-5.6,1.1-5.7,4.2c-0.2,6.3-0.2,12.6,0,18.9c0.1,3.2,2.5,4.2,5.5,4.2
		c3-0.1,5.1-1.1,5.2-4.4c0.1-3,0-6.1,0-9.1c0,0,0,0,0,0C437.7,315.3,437.8,312.3,437.7,309.2z"/>
	<path class="st1" d="M411.1,318.5c0-3,0.1-6.1,0-9.1c-0.2-3.5-1.9-4.8-5.6-4.7c-3.6,0-5.1,1.3-5.2,4.8c-0.1,5.9-0.1,11.7,0,17.6
		c0.1,3.7,1.6,5,5.3,5c3.6,0,5.3-1.4,5.5-5C411.2,324.1,411.1,321.3,411.1,318.5C411.1,318.5,411.1,318.5,411.1,318.5z"/>
	<path class="st1" d="M379.2,304.6c-3.6-0.1-5.6,1.1-5.8,4.2c-0.2,6.3-0.2,12.6,0,18.9c0.1,3.2,2.5,4.2,5.5,4.2
		c2.9-0.1,5.1-1.1,5.2-4.4c0.1-3,0-6.1,0-9.1c0,0,0,0,0,0c0-3,0-6.1,0-9.1C384.1,306,382.2,304.7,379.2,304.6z"/>
	<path class="st1" d="M251.9,145.4c-4.4,0-7.8,3.6-7.8,8c0.1,4.3,3.3,7.6,7.7,7.7c4.5,0.1,7.9-3.3,8-7.8
		C259.9,148.9,256.3,145.3,251.9,145.4z M255.6,153.2c-0.2,1.5-1.8,2.8-2.7,4.3c-0.5,0-1,0-1.6,0c-1-1.4-2.6-2.6-2.9-4.1
		c-0.4-2.4,1.3-3.8,3.6-3.8C254.2,149.6,255.9,151.1,255.6,153.2z"/>
	<path class="st1" d="M251.8,175.2c-3.3,0.1-5.7,2.6-5.6,6c0.1,3.3,2.5,5.7,5.8,5.7c3.3,0,5.8-2.4,5.8-5.8
		C257.8,177.7,255.2,175.1,251.8,175.2z"/>
	<path class="st1" d="M318.8,218.8c0-2.9-2.4-5.4-5.4-5.4c-2.8,0-5.2,2.3-5.3,5.1c-0.1,2.9,2.2,5.4,5.2,5.5
		C316.4,224.1,318.8,221.8,318.8,218.8z M309.7,218.9c1.8-1.3,2.8-2.5,3.8-2.5c0.8,0,2.5,1.4,2.4,2c-0.2,1-1.3,2.5-2.2,2.7
		C312.8,221.3,311.6,220.1,309.7,218.9z"/>
	<path class="st1" d="M186.4,213.4c-2.9,0.1-5.3,2.7-5.2,5.6c0.1,2.9,2.7,5.2,5.6,5c2.8-0.1,5-2.5,5-5.3
		C191.8,215.8,189.3,213.3,186.4,213.4z M186.7,222.5c-1.3-1.8-2.7-2.8-2.6-3.7c0.1-0.9,1.5-2.2,2.5-2.4c0.7-0.1,2.3,1.3,2.3,2.2
		C189,219.6,187.8,220.6,186.7,222.5z"/>
	<path class="st1" d="M216.7,259.3c10.9,0,19.9-8.9,19.9-19.8c0-10.9-8.9-19.8-19.9-19.8c-11,0-19.9,9-19.8,19.9
		C197.1,250.5,205.9,259.2,216.7,259.3z"/>
</g>
</svg>
