<?xml version="1.0" encoding="utf-8"?>
<!-- Generator: Adobe Illustrator 27.1.0, SVG Export Plug-In . SVG Version: 6.00 Build 0)  -->
<svg version="1.1" id="Layer_1" xmlns="http://www.w3.org/2000/svg" xmlns:xlink="http://www.w3.org/1999/xlink" x="0px" y="0px"
	 viewBox="0 0 499.1 460.2" style="enable-background:new 0 0 499.1 460.2;" xml:space="preserve">
<style type="text/css">
	.st0{fill:#00FFAB;}
</style>
<path class="st0" d="M152.2,0C219,0.8,285.7,2.9,352.4,12.4c53.4,5,110.6,21.3,126.9,79.1c20.3,45.8,23.8,91.7,16.2,140.3
	c-6.9,30.4,1.3,70.2-30.3,88.3c-29.3,20.9-66.9,18-99.9,28.7c-3.1,2.9-1.4,10.6-1.2,18.9c0.3,11.5-0.1,24.6-0.4,31.4
	c-0.3,22.7,4.2,53.6-27.3,53.1c-13.1,0.1-37.8-3.7-40.4-8.2c-10.5-17.8-5.7-30-5.5-51.2c0-6.5,1-16-0.8-22.1
	c-5.6-4.2-3.7,6.6-3.7,20.7c-0.1,19.6-0.7,39.1-1.5,45.6c-0.8,7-1.6,16.1-6.9,20.6c-2.4,2-3.6,2.6-6.4,2.6
	c-18.9,0.2-36.7-3.8-55.3-6.4c-19.4-7.4-12.3-36.5-10.9-60.8c0.5-9.2,2.8-16.9-1.1-20.4c-3.6,5-2.4,12.9-2.8,21.5
	c-1.2,23.6,1,46.8-21.8,46c-54.4-1.6-60.1-8.8-51.5-62.1c3.4-37.8,1.7-40.8-36.3-43.7C-28.3,329.3,3.6,211.1,4.5,128
	C1.4,93.4,30.2,66.2,52.4,43C79.4,16.5,117.7,7.6,152.2,0z M429.6,106.4c-50.1,0.3-36.1,56.7,6.9,54.7
	C466.1,154.3,461.4,104.2,429.6,106.4z M73.5,130.7c2.7-15.6-16-20-25.1-9.7c-11.7,10.3-8.9,39.5,9.8,38
	C68.3,154.1,73.3,141.3,73.5,130.7z M272.7,237.5c-15.8-1.1-22.9,24.5-6.8,29.5C284.3,272,293.6,238.2,272.7,237.5z M236.1,259.4
	c-0.7-6.8-1.9-11-9.2-13.1c-14.1-2.6-16.5,11.4-11.1,18.9S234.5,273.8,236.1,259.4z"/>
</svg>
