<?xml version="1.0" encoding="utf-8"?>
<!-- Generator: Adobe Illustrator 27.1.0, SVG Export Plug-In . SVG Version: 6.00 Build 0)  -->
<svg version="1.1" xmlns="http://www.w3.org/2000/svg" xmlns:xlink="http://www.w3.org/1999/xlink" x="0px" y="0px"
	 viewBox="0 0 800 800" style="enable-background:new 0 0 800 800;" xml:space="preserve">
<style type="text/css">
	.st0{fill:none;stroke:#00FFAB;stroke-width:50;stroke-linecap:round;stroke-linejoin:round;stroke-miterlimit:10;}
	.st1{display:none;}
	
		.st2{display:inline;fill:none;stroke:#FFFFFF;stroke-width:50;stroke-linecap:round;stroke-linejoin:round;stroke-miterlimit:133.3333;}
</style>
<g id="Layer_1">
	<g id="XMLID_801_">
		<path id="XMLID_802_" class="st0" d="M206.2,270.7H60.7c-6.5,0-11.7,5.2-11.7,11.7V750c0,6.5,5.2,11.7,11.7,11.7h145.6
			c6.5,0,11.7-5.2,11.7-11.7V282.4C217.9,276,212.7,270.7,206.2,270.7z"/>
		<path id="XMLID_803_" class="st0" d="M133.5,38.3c-53,0-96.1,43-96.1,95.9c0,52.9,43.1,96,96.1,96c52.9,0,96-43.1,96-96
			C229.5,81.3,186.4,38.3,133.5,38.3z"/>
		<path id="XMLID_804_" class="st0" d="M576.5,259.1c-58.5,0-101.7,25.1-127.9,53.7v-30.4c0-6.5-5.2-11.7-11.7-11.7H297.5
			c-6.5,0-11.7,5.2-11.7,11.7V750c0,6.5,5.2,11.7,11.7,11.7h145.2c6.5,0,11.7-5.2,11.7-11.7V518.7c0-78,21.2-108.3,75.5-108.3
			c59.2,0,63.9,48.7,63.9,112.4V750c0,6.5,5.2,11.7,11.7,11.7h145.3c6.5,0,11.7-5.2,11.7-11.7V493.5
			C762.5,377.6,740.4,259.1,576.5,259.1z"/>
	</g>
</g>
<g id="Layer_2" class="st1">
	<path class="st2" d="M276.8,665.5c-176.7,53-176.7-88.4-247.4-106 M524.2,771.6V634.8c2.7-34.1-9.4-67.7-33.2-92.2
		c111-12.4,227.6-54.4,227.6-247.4c0-49.3-19-96.8-53-132.5c16.1-43.2,15-90.9-3.2-133.2c0,0-41.7-12.4-138.2,52.3
		c-81-22-166.4-22-247.4,0C180.3,17,138.6,29.4,138.6,29.4c-18.2,42.4-19.3,90.1-3.2,133.2c-34.3,36-53.3,83.9-53,133.6
		c0,191.6,116.6,233.6,227.6,247.4c-23.5,24.3-35.6,57.5-33.2,91.2v136.8"/>
</g>
</svg>
