<?xml version="1.0" encoding="utf-8"?>
<!-- Generator: Adobe Illustrator 27.1.0, SVG Export Plug-In . SVG Version: 6.00 Build 0)  -->
<svg version="1.1" id="Layer_1" xmlns="http://www.w3.org/2000/svg" xmlns:xlink="http://www.w3.org/1999/xlink" x="0px" y="0px"
	 viewBox="0 0 483.8 302.6" style="enable-background:new 0 0 483.8 302.6;" xml:space="preserve">
<style type="text/css">
	.st0{fill:#FFFFFF;}
</style>
<g>
	<path class="st0" d="M348.8,181.8c-3,4.3-5,8.9-6,13.9c1.8-0.4,3.8-1.7,6-3.9c2.2-2.2,4.3-4.7,6-7.6c1.8-2.9,3.1-5.7,3.9-8.6
		c0.8-2.9,0.8-5.1-0.2-6.6C355.1,173.3,351.8,177.6,348.8,181.8z"/>
	<path class="st0" d="M197.2,165.7c-2.1,3.5-3.9,6.8-5.4,10c-1.5,3.2-2.6,5.8-3.2,7.8c2.1-2.6,4.4-5.8,6.8-9.4
		c2.4-3.6,4.6-7.2,6.8-10.7c2.1-3.6,4-6.9,5.6-9.9c1.6-3,2.7-5.2,3.3-6.6c-2.3,2.4-4.6,5.3-7.1,8.6
		C201.5,158.8,199.3,162.2,197.2,165.7z"/>
	<path class="st0" d="M481.4,127.8c-8.7-40.1-44.5-80.7-93.8-102.7C332.8,0.6,277.7-4.4,199.4,3.4C86.1,14.6-9.7,55.7,0.8,187.9
		c4.8,60.5,49.4,87.3,106,103.6c67.1,19.4,190.5,9.3,229.6-0.7C408.5,272.4,499.9,212.6,481.4,127.8z M244.4,117.4
		c0.3-2.1,0.7-4,1.1-5.8c0.4-1.8,0.8-3.5,1.3-5c0.4-1.5,0.8-2.7,1.1-3.5c0.6-1.3,1.9-2.1,4-2.4c2-0.3,4.1-0.3,6.2,0.2
		c2.1,0.5,3.9,1.3,5.3,2.4c1.5,1.1,1.9,2.4,1.3,3.7c-0.3,0.8-0.7,2-1.4,3.6c-0.6,1.6-1.3,3.3-2,5c-0.7,1.7-1.4,3.4-2.1,5.1
		c-0.7,1.7-1.3,3.1-1.8,4.4c-0.6,1.1-1.7,1.9-3.1,2.2c-1.5,0.3-3,0.4-4.5,0.1c-1.5-0.2-2.9-0.7-4.1-1.5c-1.2-0.7-1.8-1.6-1.8-2.7
		C243.9,121.4,244.1,119.5,244.4,117.4z M160.9,149.3c-1.1,1.3-2.7,2-4.8,1.9c-2.1,0-4.2-0.7-6.3-1.9c-2.1-1.2-4-2.9-5.7-5.1
		c-1.7-2.2-2.5-4.8-2.5-7.8c-0.1-3.6,0.3-7.8,1.2-12.3c0.9-4.6,1.7-9.2,2.5-13.8c0.8-4.6,1.3-9,1.4-13.2c0.2-4.1-0.6-7.7-2.1-10.6
		c-0.9-1.6-2.6-1.8-5.3-0.7c-2.7,1.1-5.8,3.1-9.3,6c-3.5,2.9-7.2,6.4-11,10.6c-3.8,4.2-7.3,8.6-10.5,13.1c-3.2,4.6-5.8,9.1-7.9,13.5
		c-2.1,4.5-3.1,8.3-3,11.6c0.1,3.3,1.6,5.8,4.7,7.5c3.1,1.7,6.9,3.3,11.6,4.7c4.7,1.4,9.8,2.8,15.4,4.2c5.6,1.4,10.8,3.3,15.6,5.7
		c4.8,2.4,9,5.6,12.4,9.7c3.4,4,5.4,9.4,5.9,16c0.3,3.2-0.4,6.9-2.1,10.9c-1.7,4-4.2,8.2-7.4,12.4c-3.2,4.2-7,8.4-11.4,12.6
		c-4.4,4.1-9.2,8-14.3,11.5c-5.1,3.5-10.5,6.6-16,9.2c-5.5,2.6-11,4.4-16.3,5.6c-4.6,0.9-8.5,1.2-11.8,1c-3.3-0.2-6.1-0.8-8.5-1.8
		c-2.8-1.3-4.9-3.1-6.4-5.4c-1.5-2.3-2.4-4.9-2.9-8c-0.4-3-0.4-6.3,0-9.7c0.4-3.5,1.2-7,2.3-10.5c1.8-5.9,4.1-11.6,7-17.1
		c2.8-5.5,5.8-10.2,9-14.2c0.6-0.6,1.3-0.9,2.2-1c0.9-0.1,1.7,0.1,2.4,0.5c0.7,0.4,1.2,0.9,1.5,1.5c0.3,0.6,0.1,1.2-0.5,1.6
		c-1.9,2.1-3.8,4.8-5.5,8.2c-1.8,3.4-3.1,6.9-4.1,10.6c-1,3.7-1.5,7.2-1.6,10.7c0,3.5,0.6,6.4,1.9,8.8c1.3,2.4,3.4,3.9,6.3,4.6
		c2.9,0.7,6.9,0.1,12-1.7c5-2,10-4.8,15.1-8.4c5.1-3.6,9.8-7.5,13.9-11.8c4.1-4.3,7.4-8.6,9.8-13c2.4-4.4,3.4-8.3,2.9-11.8
		c-0.5-3.7-2.2-6.7-5-8.9c-2.9-2.2-6.3-4.1-10.4-5.5c-4.1-1.5-8.5-2.7-13.3-3.7c-4.8-1-9.4-2.1-13.8-3.4c-4.4-1.3-8.4-2.9-12-4.9
		c-3.5-2-6.1-4.7-7.6-8.2c-2.1-4.7-2.3-10.3-0.6-16.9c1.7-6.6,4.5-13.2,8.6-19.9c4.1-6.7,9-13,14.9-18.8c5.9-5.8,12-10.3,18.3-13.4
		c6.3-3.1,12.5-4.4,18.5-3.9c6,0.5,11.3,3.7,15.9,9.6c0.6-2,1.5-4.4,2.7-7c1.1-2.6,2.3-5.2,3.4-7.7c1.1-2.5,2.2-4.7,3.3-6.7
		c1.1-2,2-3.3,2.7-3.9c1.1-0.9,2.9-1.2,5.6-0.7c2.7,0.5,5.3,1.4,7.7,2.7c2.5,1.3,4.4,2.8,5.9,4.6c1.5,1.8,1.5,3.3,0.2,4.7
		c-2.1,2.5-4.5,6-7,10.5c-2.5,4.5-5,9.4-7.3,14.7c-2.3,5.4-4.5,10.9-6.5,16.6c-2,5.7-3.5,11-4.6,15.9c-1.1,4.9-1.6,9.2-1.6,12.8
		C158.5,145.7,159.3,148.1,160.9,149.3z M217.8,178.9c3.8,0.2,6.5,0.8,8.1,1.9c0.5,0.5,0.6,1.6,0.4,3.5c-0.2,1.9-0.7,3.7-1.5,5.6
		c-0.8,1.9-1.7,3.4-2.8,4.7c-1.1,1.3-2.2,1.6-3.5,1c-2-1-4.3-1.8-7.1-2.4c-2.8-0.5-5.7-0.7-8.8-0.4c-3.1,0.3-6.2,1-9.2,2.1
		c-3.1,1.1-5.7,2.7-8.1,4.7c-0.4,2.8-0.7,5.3-1,7.6c-0.3,2.3-0.4,4.2-0.5,5.8c-0.2,1.5-1.2,2.4-3.1,2.7c-1.9,0.3-3.8,0.3-5.9,0
		c-2.1-0.3-4-0.9-5.7-1.9c-1.7-0.9-2.4-2-2.2-3.2c0.5-4,1.5-9.4,3-16.1c1.5-6.7,3.3-14.2,5.4-22.3c2.1-8.1,4.5-16.6,7.2-25.3
		c2.7-8.7,5.6-17.2,8.5-25.2c3-8.1,6-15.4,9.2-22c3.2-6.6,6.3-11.8,9.4-15.6c1.9-2.4,3.8-3.5,5.8-3.3c2,0.1,4.5,0.9,7.6,2.3
		c1.8,0.8,3.5,1.6,5,2.3c1.5,0.7,2,2,1.3,3.9c-1.8,1-4,3.4-6.6,7.2c-2.6,3.8-5.2,8.2-7.9,13.4c-2.7,5.2-5.4,10.8-8,16.7
		c-2.7,5.9-5.1,11.6-7.2,17c-2.1,5.4-3.9,10.2-5.2,14.4c-1.3,4.2-2,7-2.1,8.6c1.6-2.7,3.4-5.7,5.4-9.1c2-3.4,4.2-6.7,6.4-10.1
		c2.2-3.4,4.5-6.6,6.7-9.7c2.3-3.1,4.4-5.6,6.5-7.8c0.8-0.9,1.8-1.8,2.9-2.7c1.1-0.9,2.3-1.1,3.6-0.6c4,1.3,6.8,2.6,8.6,3.9
		c1.8,1.3,2,3.5,0.7,6.6c-1.2,2.8-3,6.2-5.4,10.2c-2.4,4-5,8-7.8,12.2c-2.8,4.1-5.5,8-8,11.6c-2.6,3.6-4.6,6.5-6.2,8.5
		C210,179,214,178.8,217.8,178.9z M325.9,215.7c-2.9,1.2-5.9,1.6-9.2,1.3c-3.7-0.2-7-1.4-9.9-3.7c-3.1-2.3-5.2-6.4-6.4-12.1
		c-1.3-5.8-0.9-13.9,1.2-24.1c-0.5,1.2-1,2.5-1.5,3.8c-0.5,1.3-1.1,2.7-1.7,4.1c-1,2.6-1.9,5.2-2.9,7.7c-1,2.5-1.9,4.9-2.9,7.3
		c-1.9,4.4-3.8,7.5-5.6,9.2c-4.1,2.4-8.5,3.2-13,2.4c-6.8-1.8-10.2-9.1-10.3-22c0-2.8,0.1-5.8,0.3-8.8c-1.4,2.4-2.8,4.6-4.2,6.8
		c-2.9,4.3-5.6,7.2-8.1,8.8c-1.6,0.9-3.5,1.3-5.7,1.4c-2.2,0-4.4-0.3-6.4-1c-2.1-0.7-3.8-1.8-5.3-3.2c-1.5-1.4-2.3-3.2-2.5-5.3
		c-0.2-2.6-0.1-6.1,0.2-10.5c0.4-4.4,1-9.2,2-14.2c0.9-5,2.1-10,3.3-15c1.3-5,2.7-9.2,4.3-12.9c0.5-1.1,1.7-1.8,3.7-2.1
		c2-0.3,4-0.2,6,0.4c2,0.5,3.8,1.3,5.2,2.4c1.5,1.1,2,2.4,1.5,3.9c-4.5,12.4-7.3,22-8.6,28.8c-1.3,6.8-1.4,11.1-0.4,12.9
		c0.7,1.3,1.8,1.4,3.3,0c1.5-1.3,3.3-3.7,5.4-7.1c2.1-3.4,4.4-7.8,6.9-13.1c0.7-1.5,1.4-3,2.1-4.6c0.8-4.2,1.7-8.6,2.7-13.1
		c1.9-8.8,4-17.1,6.2-25.1c2.2-8,4.5-15.6,7.1-23c4.6-14.5,8.4-24.4,11.6-29.9c1.7-2.6,4.5-3.8,8.2-3.5c1.7,0,3.3,0.3,4.8,0.7
		c1.5,0.5,2.9,1.2,4.2,2.2c2.5,1.9,3.1,4.3,1.8,7.2c-5.6,9.9-10.6,21.3-15.1,34.3c-2.2,6.6-4.3,12.9-6,19c-1.8,6.1-3.3,12-4.6,17.8
		c-2.1,9.8-3.6,18.2-4.6,25.2c-1,6.9-1.4,12.7-1.2,17.2c0.2,8.9,1.8,10.9,5,6.2c1.6-2.8,3.1-6,4.6-9.6s2.9-7.4,4.1-11.5
		c1.4-4.4,2.7-8.7,3.9-12.9c1.3-4.2,2.4-8.4,3.6-12.7c0.2-0.3,0.3-0.6,0.3-0.8c0-0.3,0.1-0.5,0.3-0.8c3.3-14.1,7.3-27.7,12.1-41
		c4.7-13.3,10.3-26.3,16.8-39.1c1.4-2.5,3.7-3.4,6.9-2.7c3.3,0.6,6.1,1.9,8.4,4c2.5,1.9,3.2,3.9,2.2,6c-5.1,8.6-9.7,17.6-13.7,27.2
		c-4,9.6-7.5,19.8-10.6,30.7c-5.9,21.7-8.7,40.8-8.5,57.3c0.3,16.6,4.8,25.3,13.4,26.2C330,213.7,328.5,214.8,325.9,215.7z
		 M407.2,128.1c-0.2,0.1-0.4,0.1-0.7,0.1c-0.3,0-0.6-0.1-1.1-0.1c-0.5-0.1-1.1,0-1.8,0.3c-1.9,0.6-4.5,2.3-8,4.9
		c-3.4,2.6-7,5.5-10.6,8.7c-3.6,3.2-7,6.3-10,9.2c-3.1,3-5,5.1-5.9,6.4c0.8,0.9,1.6,1.8,2.3,2.6c0.8,0.8,1.5,1.7,2.3,2.6
		c2.4,3.2,3.7,6.6,3.9,10.1c0.2,3.5-0.4,7-1.8,10.5c-1.4,3.5-3.5,6.9-6.2,10.2c-2.7,3.2-5.6,6.1-8.9,8.5c-2.1,1.6-4.6,2.9-7.4,3.9
		c-2.8,1-5.6,1.6-8.4,1.7c-2.8,0.2-5.4,0-7.9-0.6c-2.5-0.6-4.5-1.6-6.1-3.2c-1.6-1.5-2.6-3.5-3-6c-0.4-2.4,0.1-5.4,1.6-8.9
		c2.3-5.3,5.5-10.4,9.6-15.2c4.1-4.9,8.3-9.5,12.7-13.9c-2.8-3-5.5-5.9-8.3-8.6c-2.8-2.7-4.9-5.8-6.3-9.4c-1.2-3.2-1.8-6.6-1.9-10
		c0-3.5,0.5-6.8,1.5-10.1c1-3.3,2.4-6.4,4.3-9.3c1.9-2.9,4.1-5.6,6.7-7.9c1.3-1.1,2.9-1.7,4.8-1.9c1.9-0.2,3.9-0.1,5.9,0.3
		c2,0.4,3.9,0.9,5.6,1.6c1.7,0.7,3.1,1.3,4.1,1.8c2.6-5.9,5-10.3,7.1-13.2c2.1-3,3.9-5.3,5.2-6.9c0.8-0.8,2.1-0.8,3.7,0
		c1.7,0.8,3.3,1.8,4.9,3.3c1.6,1.4,2.8,2.9,3.8,4.5c0.9,1.6,1,2.7,0.2,3.5c-1.9,1.7-4,4.3-6.4,7.7c-2.4,3.5-4.6,7.1-6.6,10.9
		c-2,3.8-3.4,7.4-4.3,10.9c-0.9,3.5-0.8,6.2,0.4,8.1c-0.6,0.3-1.5,0.4-2.6,0.2c-1.1-0.2-2.3-0.7-3.5-1.3c-1.2-0.6-2.3-1.5-3.4-2.6
		c-1.1-1.1-1.9-2.3-2.5-3.7c-0.4-1-0.6-2.2-0.5-3.6c0.1-1.4,0.2-2.7,0.4-4.1c0.2-1.3,0.5-2.6,0.8-3.8c0.4-1.2,0.6-2.2,0.8-2.9
		c-2.5,0.2-4.6,1.8-6.3,4.9c-1.7,3.1-2.9,6.6-3.4,10.6c-0.5,4-0.3,8.1,0.5,12.2c0.8,4.1,2.7,7.5,5.5,9.9c2.2-1.9,4.8-4.2,7.8-7
		c3-2.8,6-5.5,9-8.2c3-2.7,6.1-5.1,9.1-7.2c3-2.1,5.8-3.5,8.2-4.3c1.8-0.5,3.9-0.3,6.3,0.5c2.5,0.8,4.3,1.6,5.4,2.4
		C407.7,127.7,407.4,128,407.2,128.1z"/>
</g>
</svg>
