<?xml version="1.0" encoding="utf-8"?>
<!-- Generator: Adobe Illustrator 27.1.0, SVG Export Plug-In . SVG Version: 6.00 Build 0)  -->
<svg version="1.1" id="Layer_1" xmlns="http://www.w3.org/2000/svg" xmlns:xlink="http://www.w3.org/1999/xlink" x="0px" y="0px"
	 viewBox="0 0 512.1 512.1" style="enable-background:new 0 0 512.1 512.1;" xml:space="preserve">
<style type="text/css">
	.st0{fill:#00FFAB;}
</style>
<g>
	<path class="st0" d="M322.2,283.2c-9-6.8-20.8-10.2-35.6-10.2h-74.2v85.1l72.9,0.1c6.6,0,13-0.7,19.1-2c6.1-1.3,11.4-3.4,16.1-6.5
		c4.7-3.1,8.3-7.2,11.1-12.4c2.7-5.2,4.1-11.9,4.1-20C335.7,301.4,331.2,290,322.2,283.2z"/>
	<path class="st0" d="M311.4,217.8c7.8-5.8,11.7-15.2,11.7-28.2c0-7.2-1.3-13.2-3.9-17.8c-2.6-4.7-6.1-8.3-10.4-10.9
		c-4.4-2.6-9.4-4.4-15-5.4c-5.7-1-11.5-1.5-17.6-1.5h-63.8v72.5h69C293.6,226.5,303.6,223.6,311.4,217.8z"/>
	<path class="st0" d="M446,0H66C29.6,0,0,29.6,0,66v380c0,36.5,29.6,66,66,66h380c36.5,0,66-29.6,66-66V66C512,29.5,482.4,0,446,0z
		 M394.7,361.7c-6,11.4-14.2,20.8-24.5,28c-10.3,7.3-22,12.6-35.2,16.1s-26.7,5.2-40.6,5.2H144.2V101l145.7-0.1
		c14.8,0,28.2,1.3,40.4,3.9c12.2,2.6,22.6,6.9,31.3,12.8c8.7,6,15.4,13.9,20.2,23.7c4.8,9.9,7.2,22,7.2,36.5
		c0,15.7-3.5,28.7-10.6,39.1c-7.1,10.4-17.6,18.9-31.5,25.6c19.1,5.5,33.4,15.1,42.8,28.9c9.4,13.7,14.1,30.3,14.1,49.7
		C403.8,336.7,400.7,350.3,394.7,361.7z"/>
</g>
</svg>
