<?xml version="1.0" encoding="utf-8"?>
<!-- Generator: Adobe Illustrator 27.1.0, SVG Export Plug-In . SVG Version: 6.00 Build 0)  -->
<svg version="1.1" id="Layer_1" xmlns="http://www.w3.org/2000/svg" xmlns:xlink="http://www.w3.org/1999/xlink" x="0px" y="0px"
	 viewBox="0 0 451 512.1" style="enable-background:new 0 0 451 512.1;" xml:space="preserve">
<style type="text/css">
	.st0{fill:#00FFAB;}
</style>
<path class="st0" d="M0,0l41,460.1l184,52l185-52L451,0H0z M366,109l-3,29l-1,12H226h-1h-79l5,58h75l0,0h115h16l-2,15l-13,149l-1,10
	l-115,31.7v0.3h-1l0,0l0,0l-116-32l-7-89h26h30l4,45l63,17l63-17l7-73h-70l0,0H99L85,109l-1-15h141h1l0,0h141L366,109z"/>
</svg>
