<?xml version="1.0" encoding="utf-8"?>
<!-- Generator: Adobe Illustrator 27.1.0, SVG Export Plug-In . SVG Version: 6.00 Build 0)  -->
<svg version="1.1" id="Layer_1" xmlns="http://www.w3.org/2000/svg" xmlns:xlink="http://www.w3.org/1999/xlink" x="0px" y="0px"
	 viewBox="0 0 525.2 512.1" style="enable-background:new 0 0 525.2 512.1;" xml:space="preserve">
<style type="text/css">
	.st0{fill:#00FFAB;}
</style>
<g>
	<path class="st0" d="M325.6,223.9c-8.5,0-17.1,1.8-24.7,5.7c-7.4,3.7-13.8,9.2-18.6,16.2s-7.2,16.4-7.2,27.8
		c-0.2,7.7,1.1,15.3,3.7,22.5c2.2,5.9,5.5,11.2,9.9,15.5c4.2,3.9,9.2,7,14.9,8.8c5.9,2,12,2.8,18.2,2.8c3.3,0,6.4-0.2,9.2-0.4
		c2.9,0.2,5.5-0.2,7.9-1.1v-96.3c-2-0.4-3.9-0.9-5.9-1.1C330.4,224.1,328,223.9,325.6,223.9z"/>
	<path class="st0" d="M432.2,0H93C41.6,0,0,41.6,0,93v326.1c0,51.4,41.6,93,93,93h339.2c51.4,0,93-41.6,93-93V93
		C525.2,41.6,483.6,0,432.2,0z M190.8,359.3c0,2.4-1.1,3.5-3.1,3.5h-42.9c-2,0-2.8-1.1-2.8-3.5V133.9c0-2,1.1-2.8,3.1-2.8h42.7
		c1.3-0.2,2.6,0.7,2.8,2.2c0.2,0.2,0.2,0.4,0.2,0.7V359.3z M386.7,351.9c-11.4,4.8-23.4,8.3-35.7,10.5c-11,2-22.3,3.1-33.7,3.1
		c-16.2,0.2-32.4-3.1-47-9.8c-13.8-6.4-25.2-16.9-33-29.8c-8.1-13.4-12-30-12-49.9c-0.2-16.2,3.9-32.2,12-46.2
		c8.3-14.2,20.3-26,34.8-33.9c15.3-8.5,33.7-12.7,55.4-12.7c1.1,0,2.6,0,4.6,0.2c2,0.2,4.2,0.2,6.8,0.4v-69.2c0-1.5,0.7-2.4,2.2-2.4
		h44.4c1.1-0.2,2,0.7,2.2,1.5v208.8c0,3.9,0.2,8.3,0.4,13.1c0.4,4.6,0.7,9,0.9,12.7C388.9,349.9,388.2,351.2,386.7,351.9z"/>
</g>
</svg>
