<?xml version="1.0" encoding="utf-8"?>
<!-- Generator: Adobe Illustrator 27.1.0, SVG Export Plug-In . SVG Version: 6.00 Build 0)  -->
<svg version="1.1" id="Layer_1" xmlns="http://www.w3.org/2000/svg" xmlns:xlink="http://www.w3.org/1999/xlink" x="0px" y="0px"
	 viewBox="0 0 512.1 512.1" style="enable-background:new 0 0 512.1 512.1;" xml:space="preserve">
<style type="text/css">
	.st0{fill:#00FFAB;}
</style>
<g>
	<g>
		<path class="st0" d="M464.7,113.5L278,5c-11.8-6.7-27.1-6.7-39,0L50.2,113.5c-12.2,7-20.8,20.1-20.8,34.2v216.6
			c0,14,8.8,27.2,21,34.2l49.9,28.3c23.8,11.7,32.3,11.7,43.1,11.7c35.3,0,55.5-21.3,55.5-58.6V166.1c0-3-1.6-7.5-4.5-7.5h-23.8
			c-3,0-9.8,4.5-9.8,7.5V380c0,16.5-14.9,32.9-42.8,19l-51.5-29.7c-1.8-1-3.1-2.9-3.1-5V147.7c0-2,2.4-4.1,4.2-5.1L255.7,34.3
			c1.8-1,4.3-1,6.1,0l185.8,108.2c1.8,1.1,1.2,3.1,1.2,5.2v216.6c0,2,0.8,4.1-1,5.1L261,477.6c-1.6,1-3.6,1-5.3,0l-47.9-28.6
			c-1.4-0.8-3.2-1.1-4.5-0.4c-13.3,7.5-15.8,8.6-28.3,12.9c-3.1,1.1-7.6,2.9,1.7,8.2l62.7,37.1c6,3.5,12.8,5.3,19.7,5.3
			c6.9,0,13.8-1.8,19.8-5.3l185.8-108.3c12.2-7.1,17.9-20.2,17.9-34.2V147.7C482.6,133.6,476.9,120.5,464.7,113.5L464.7,113.5z
			 M317.1,329.9c-49.7,0-60.6-13.7-64.3-38.4c-0.4-2.7-2.7-5.8-5.4-5.8h-24.3c-3,0-5.4,3.6-5.4,6.6c0,31.6,17.2,69.9,99.3,69.9
			c59.5,0,93.6-23.1,93.6-64c0-40.5-27.4-51.2-85-58.8c-58.3-7.7-64.2-11.6-64.2-25.2c0-11.2,5-26.3,48.2-26.3
			c38.5,0,52.8,8.3,58.6,34.3c0.5,2.4,2.7,4.2,5.3,4.2h24.4c1.5,0,2.9-0.6,4-1.7c1-1.2,1.6-2.6,1.4-4.2
			c-3.8-44.7-33.5-65.6-93.6-65.6c-53.5,0-85.4,22.6-85.4,60.4c0,41.1,31.7,52.4,83.1,57.5c61.4,6,66.2,15,66.2,27.1
			C373.4,321,356.6,329.9,317.1,329.9L317.1,329.9z M317.1,329.9"/>
	</g>
</g>
</svg>
