<?xml version="1.0" encoding="utf-8"?>
<!-- Generator: Adobe Illustrator 27.1.0, SVG Export Plug-In . SVG Version: 6.00 Build 0)  -->
<svg version="1.1" id="Layer_5" xmlns="http://www.w3.org/2000/svg" xmlns:xlink="http://www.w3.org/1999/xlink" x="0px" y="0px"
	 viewBox="0 0 852.7 675.2" style="enable-background:new 0 0 852.7 675.2;" xml:space="preserve">
<style type="text/css">
	.st0{fill:#575754;}
	.st1{fill:#7D7F83;}
</style>
<g>
	<g>
		<path class="st0" d="M131.6,133.9c20.7,0,38.8,10.9,49,27.2c11.1-11.9,17.8-27.9,17.8-45.5c0-36.9-29.9-66.9-66.9-66.9
			c-36.9,0-66.9,29.9-66.9,66.9c0,17.6,6.8,33.5,17.8,45.5C92.8,144.8,111,133.9,131.6,133.9z M131.6,73.1
			c15.7,0,28.4,12.7,28.4,28.4s-12.7,28.4-28.4,28.4s-28.4-12.7-28.4-28.4S116,73.1,131.6,73.1z"/>
		<path class="st1" d="M131.6,182.6c19.4,0,36.8-8.2,49-21.4c-10.2-16.4-28.3-27.2-49-27.2s-38.8,10.9-49,27.2
			C94.8,174.3,112.3,182.6,131.6,182.6z"/>
		
			<ellipse transform="matrix(0.9239 -0.3827 0.3827 0.9239 -28.8279 58.1073)" class="st1" cx="131.6" cy="101.5" rx="28.4" ry="28.4"/>
	</g>
	<path class="st0" d="M191.9,208.7H71.4c-5.5,0-10,4.5-10,10v273.7c0,5.5,4.5,10,10,10h120.5c5.5,0,10-4.5,10-10V218.7
		C201.9,213.2,197.4,208.7,191.9,208.7z"/>
	<path class="st0" d="M570.9,56.3H236.7c-5.5,0-10,4.5-10,10v37.9c0,5.5,4.5,10,10,10h334.2c5.5,0,10-4.5,10-10V66.3
		C580.9,60.7,576.4,56.3,570.9,56.3z"/>
	<path class="st0" d="M781.3,56.3H613.7c-5.5,0-10,4.5-10,10v426.2c0,5.5,4.5,10,10,10h167.6c5.5,0,10-4.5,10-10V66.3
		C791.3,60.7,786.8,56.3,781.3,56.3z"/>
	<path class="st0" d="M570.9,134.9H236.7c-5.5,0-10,4.5-10,10v201.7c0,5.5,4.5,10,10,10h334.2c5.5,0,10-4.5,10-10V144.9
		C580.9,139.4,576.4,134.9,570.9,134.9z"/>
	<path class="st0" d="M570.9,376.4H236.7c-5.5,0-10,4.5-10,10v106c0,5.5,4.5,10,10,10h334.2c5.5,0,10-4.5,10-10v-106
		C580.9,380.9,576.4,376.4,570.9,376.4z"/>
</g>
</svg>
