<?xml version="1.0" encoding="utf-8"?>
<!-- Generator: Adobe Illustrator 27.1.0, SVG Export Plug-In . SVG Version: 6.00 Build 0)  -->
<svg version="1.1" id="Layer_1" xmlns="http://www.w3.org/2000/svg" xmlns:xlink="http://www.w3.org/1999/xlink" x="0px" y="0px"
	 viewBox="0 0 852.7 675.2" style="enable-background:new 0 0 852.7 675.2;" xml:space="preserve">
<style type="text/css">
	.st0{fill:#F37021;}
	.st1{fill:#ECECEC;}
	.st2{fill:#D0D0D0;}
	.st3{fill:#ABACAD;}
	.st4{fill:#121212;}
	.st5{fill:#343436;}
</style>
<g id="Layer_1_00000116938270502660294600000015030429969190281100_">
</g>
<g id="Layer_2_00000056389533437998933870000009132284657059919288_">
	<g>
		<g>
			<polygon class="st0" points="543.6,654.4 489.1,654.4 489.1,654.4 363.6,654.4 363.6,654.4 309.1,654.4 270.1,665.4 283.1,665.4 
				363.6,665.4 363.6,665.4 489.1,665.4 489.1,665.4 569.6,665.4 582.6,665.4 			"/>
			<rect x="270.1" y="665.4" class="st1" width="312.5" height="9.9"/>
			<polygon class="st2" points="532.4,510.8 477.8,510.8 376.1,510.8 321.5,510.8 300.5,663.8 376.1,663.8 477.8,663.8 553.4,663.8 
							"/>
			<polygon class="st3" points="552.4,656.9 301.5,656.5 270.1,665.4 283.1,665.4 363.6,665.4 363.6,665.4 489.1,665.4 489.1,665.4 
				569.6,665.4 582.6,665.4 			"/>
		</g>
		<path class="st4" d="M826.7,555.6H26c-11,0-20-9-20-20V26C6,15,15,6,26,6h800.7c11,0,20,9,20,20v509.6
			C846.7,546.6,837.7,555.6,826.7,555.6z"/>
		<path class="st1" d="M826.7,6c11,0,20,9,20,20v509.6c0,11-9,20-20,20H26c-11,0-20-9-20-20V26C6,15,15,6,26,6H826.7 M826.7,0H26
			C11.7,0,0,11.7,0,26v509.6c0,14.3,11.7,26,26,26h800.7c14.3,0,26-11.7,26-26V26C852.7,11.7,841,0,826.7,0L826.7,0z"/>
		<rect x="25.3" y="23.7" class="st5" width="802" height="514.1"/>
	</g>
</g>
</svg>
