<?xml version="1.0" encoding="utf-8"?>
<!-- Generator: Adobe Illustrator 27.1.0, SVG Export Plug-In . SVG Version: 6.00 Build 0)  -->
<svg version="1.1" xmlns="http://www.w3.org/2000/svg" xmlns:xlink="http://www.w3.org/1999/xlink" x="0px" y="0px"
	 viewBox="0 0 133.7 133.7" style="enable-background:new 0 0 133.7 133.7;" xml:space="preserve">
<style type="text/css">
	.st0{fill:#575754;}
	.st1{fill:#00FFAB;}
</style>
<g id="Layer_1">
	<g id="Layer_1_00000093164034292180709750000015402785541551818169_">
	</g>
	<g id="Layer_5">
		<g>
			<path class="st0" d="M66.9,85.1c20.7,0,38.8,10.9,49,27.2c11.1-11.9,17.8-27.9,17.8-45.5C133.7,29.9,103.8,0,66.9,0
				C29.9,0,0,29.9,0,66.9c0,17.6,6.8,33.5,17.8,45.5C28,96,46.2,85.1,66.9,85.1z M66.9,24.3c15.7,0,28.4,12.7,28.4,28.4
				S82.5,81.1,66.9,81.1S38.5,68.4,38.5,52.7S51.2,24.3,66.9,24.3z"/>
			<path class="st1" d="M66.9,133.7c19.4,0,36.8-8.2,49-21.4c-10.2-16.4-28.3-27.2-49-27.2S28,96,17.8,112.3
				C30,125.5,47.5,133.7,66.9,133.7z"/>
			<ellipse class="st1" cx="66.9" cy="52.7" rx="28.4" ry="28.4"/>
		</g>
	</g>
</g>
<g id="Layer_4">
</g>
</svg>
