<?xml version="1.0" encoding="utf-8"?>
<!-- Generator: Adobe Illustrator 27.1.0, SVG Export Plug-In . SVG Version: 6.00 Build 0)  -->
<svg version="1.1" xmlns="http://www.w3.org/2000/svg" xmlns:xlink="http://www.w3.org/1999/xlink" x="0px" y="0px"
	 viewBox="0 0 133.7 133.7" style="enable-background:new 0 0 133.7 133.7;" xml:space="preserve">
<style type="text/css">
	.st0{fill:#575754;}
	.st1{fill:#00FFAB;}
	.st2{fill:#333333;}
</style>
<g id="Layer_1">
	<g id="Layer_1_00000088850561610904889110000005385243775363839625_">
		<g id="Layer_1_00000093164034292180709750000015402785541551818169_">
		</g>
		<g id="Layer_5">
			<g>
				<path class="st0" d="M66.9,85.1c20.7,0,38.8,10.9,49,27.2c11.1-11.9,17.8-27.9,17.8-45.5C133.7,29.9,103.8,0,66.9,0
					C29.9,0,0,29.9,0,66.9c0,17.6,6.8,33.5,17.8,45.5C28,96,46.2,85.1,66.9,85.1z M66.9,24.3c15.7,0,28.4,12.7,28.4,28.4
					S82.5,81.1,66.9,81.1S38.5,68.4,38.5,52.7S51.2,24.3,66.9,24.3z"/>
				<path class="st1" d="M66.9,133.7c19.4,0,36.8-8.2,49-21.4c-10.2-16.4-28.3-27.2-49-27.2S28,96,17.8,112.3
					C30,125.5,47.5,133.7,66.9,133.7z"/>
				<ellipse class="st1" cx="66.9" cy="52.7" rx="28.4" ry="28.4"/>
			</g>
		</g>
	</g>
	<g id="Layer_4">
	</g>
</g>
<g id="Layer_2">
	<path class="st2" d="M96.7,44.3c-0.1-0.8-0.2-1-1.1-1.2c-2.8-0.6-5.7-1.1-8.6-1.3c-2.5-0.2-5.1-0.2-7.6,0c-2.3,0.2-4.5,0.7-6.7,1.2
		c-1.5,0.3-2.9,0.7-4.4,0.7c-1,0-1.9,0-2.9,0c-0.6,0-1.2,0-1.8-0.1c-1-0.2-1.9-0.4-2.9-0.6c-3.4-0.8-6.8-1.3-9.5-1.3
		c-4.1,0-7.4,0.4-10.6,1c-0.9,0.2-1.8,0.3-2.6,0.5c-0.5,0.1-0.8,0.4-0.8,0.9c0,0.7-0.1,1.3-0.1,2c0,0.5,0.2,0.9,0.6,1.2
		c0.9,0.6,1.3,1.4,1.4,2.4c0.2,1.2,0.4,2.5,0.6,3.7c0.3,1.6,0.7,3.2,1.4,4.7c0.3,0.8,0.8,1.4,1.6,1.8c0.9,0.6,1.9,1,2.9,1.3
		c2.1,0.7,4.3,0.8,6.6,0.6c3.3-0.2,6.2-1.5,8.5-3.9c2-2,3.2-4.5,4.2-7.1c0.2-0.4,0.4-0.7,0.8-0.9c0.8-0.3,1.7-0.3,2.5,0
		c0.4,0.2,0.7,0.5,0.9,0.9c0.7,1.9,1.6,3.7,2.8,5.4c1.7,2.3,3.8,4,6.5,5c2,0.7,4,0.8,6,0.7c1.9-0.1,3.8-0.5,5.6-1.3
		c1.6-0.7,2.7-1.7,3.2-3.4c0,0,0-0.1,0-0.1c0.7-2.2,1.2-4.5,1.5-6.9c0.2-1.3,0.5-2.3,1.7-3.1c0.3-0.2,0.4-0.5,0.4-0.8
		C96.7,45.6,96.7,45,96.7,44.3z"/>
</g>
</svg>
