<?xml version="1.0" encoding="utf-8"?>
<!-- Generator: Adobe Illustrator 27.1.0, SVG Export Plug-In . SVG Version: 6.00 Build 0)  -->
<svg version="1.1" id="Layer_1" xmlns="http://www.w3.org/2000/svg" xmlns:xlink="http://www.w3.org/1999/xlink" x="0px" y="0px"
	 viewBox="0 0 430 281.8" style="enable-background:new 0 0 430 281.8;" xml:space="preserve">
<style type="text/css">
	.st0{opacity:0.8;fill:#1E1E1E;enable-background:new    ;}
	.st1{opacity:0.8;fill:#252526;enable-background:new    ;}
	.st2{fill:#00FFAB;}
	.st3{fill:#9D9FA2;}
	.st4{fill:#97B6C6;}
</style>
<g id="Layer_1_00000136383077489251398900000012145205118819965838_">
	<g id="Layer_1_00000145033691951184772800000000925007886201950884_">
	</g>
	<g id="Layer_3">
	</g>
	<g id="Layer_4">
		<g>
			<g>
				<path class="st0" d="M94.2,281.8h327.5c4.6,0,8.3-3.7,8.3-8.3V24.7H94.2V281.8z"/>
				<path class="st1" d="M0,24.7v248.8c0,4.6,3.7,8.3,8.3,8.3h85.8V24.7H0z"/>
				<path d="M421.6,0H94.2H8.3C3.7,0,0,3.7,0,8.3v16.4h94.2H430V8.3C430,3.7,426.2,0,421.6,0z"/>
			</g>
			<g>
				<circle class="st2" cx="20" cy="12.3" r="6"/>
				<circle class="st2" cx="59.7" cy="12.3" r="6"/>
				<circle class="st2" cx="39.9" cy="12.3" r="6"/>
			</g>
			<path class="st3" d="M78.1,43.9H15.2c-0.7,0-1.2-0.5-1.2-1.2l0,0c0-0.7,0.5-1.2,1.2-1.2h62.9c0.7,0,1.2,0.5,1.2,1.2l0,0
				C79.2,43.4,78.7,43.9,78.1,43.9z"/>
			<path class="st3" d="M57.3,63.2H15.2c-0.7,0-1.2-0.5-1.2-1.2l0,0c0-0.7,0.5-1.2,1.2-1.2h42.1c0.7,0,1.2,0.5,1.2,1.2l0,0
				C58.4,62.7,57.9,63.2,57.3,63.2z"/>
			<path class="st3" d="M63.6,82.5H15.2c-0.7,0-1.2-0.5-1.2-1.2l0,0c0-0.7,0.5-1.2,1.2-1.2h48.4c0.7,0,1.2,0.5,1.2,1.2l0,0
				C64.8,82,64.3,82.5,63.6,82.5z"/>
			<path class="st2" d="M53,101.8H15.2c-0.7,0-1.2-0.5-1.2-1.2l0,0c0-0.7,0.5-1.2,1.2-1.2H53c0.7,0,1.2,0.5,1.2,1.2l0,0
				C54.1,101.3,53.6,101.8,53,101.8z"/>
			<path class="st3" d="M60.3,121.1H15.2c-0.7,0-1.2-0.5-1.2-1.2l0,0c0-0.7,0.5-1.2,1.2-1.2h45.1c0.7,0,1.2,0.5,1.2,1.2l0,0
				C61.5,120.5,60.9,121.1,60.3,121.1z"/>
			<path class="st3" d="M74.1,140.3H15.2c-0.7,0-1.2-0.5-1.2-1.2l0,0c0-0.7,0.5-1.2,1.2-1.2h58.9c0.7,0,1.2,0.5,1.2,1.2l0,0
				C75.3,139.8,74.7,140.3,74.1,140.3z"/>
			<path class="st2" d="M46.8,159.6H15.2c-0.7,0-1.2-0.5-1.2-1.2l0,0c0-0.7,0.5-1.2,1.2-1.2h31.6c0.7,0,1.2,0.5,1.2,1.2l0,0
				C48,159.1,47.5,159.6,46.8,159.6z"/>
			<path class="st3" d="M74.1,178.9H15.2c-0.7,0-1.2-0.5-1.2-1.2l0,0c0-0.7,0.5-1.2,1.2-1.2h58.9c0.7,0,1.2,0.5,1.2,1.2l0,0
				C75.3,178.4,74.7,178.9,74.1,178.9z"/>
			<path class="st3" d="M60.5,198.2H15.2c-0.7,0-1.2-0.5-1.2-1.2l0,0c0-0.7,0.5-1.2,1.2-1.2h45.3c0.7,0,1.2,0.5,1.2,1.2l0,0
				C61.6,197.7,61.1,198.2,60.5,198.2z"/>
			<path class="st3" d="M63.6,53.6H15.2c-0.7,0-1.2-0.5-1.2-1.2l0,0c0-0.7,0.5-1.2,1.2-1.2h48.4c0.7,0,1.2,0.5,1.2,1.2l0,0
				C64.8,53.1,64.3,53.6,63.6,53.6z"/>
			<path class="st3" d="M65,72.9H15.2c-0.7,0-1.2-0.5-1.2-1.2l0,0c0-0.7,0.5-1.2,1.2-1.2H65c0.7,0,1.2,0.5,1.2,1.2l0,0
				C66.2,72.3,65.7,72.9,65,72.9z"/>
			<path class="st3" d="M64.7,92.1H15.2c-0.7,0-1.2-0.5-1.2-1.2l0,0c0-0.7,0.5-1.2,1.2-1.2h49.5c0.7,0,1.2,0.5,1.2,1.2l0,0
				C65.9,91.6,65.4,92.1,64.7,92.1z"/>
			<path class="st3" d="M70.1,111.4H15.2c-0.7,0-1.2-0.5-1.2-1.2l0,0c0-0.7,0.5-1.2,1.2-1.2h54.9c0.7,0,1.2,0.5,1.2,1.2l0,0
				C71.3,110.9,70.7,111.4,70.1,111.4z"/>
			<path class="st3" d="M68.8,130.7H15.2c-0.7,0-1.2-0.5-1.2-1.2l0,0c0-0.7,0.5-1.2,1.2-1.2h53.6c0.7,0,1.2,0.5,1.2,1.2l0,0
				C70,130.2,69.5,130.7,68.8,130.7z"/>
			<path class="st3" d="M55.8,150H15.2c-0.7,0-1.2-0.5-1.2-1.2l0,0c0-0.7,0.5-1.2,1.2-1.2h40.6c0.7,0,1.2,0.5,1.2,1.2l0,0
				C57,149.5,56.5,150,55.8,150z"/>
			<path class="st3" d="M64.7,169.3H15.2c-0.7,0-1.2-0.5-1.2-1.2l0,0c0-0.7,0.5-1.2,1.2-1.2h49.5c0.7,0,1.2,0.5,1.2,1.2l0,0
				C65.9,168.7,65.4,169.3,64.7,169.3z"/>
			<path class="st3" d="M66.1,188.5H15.2c-0.7,0-1.2-0.5-1.2-1.2l0,0c0-0.7,0.5-1.2,1.2-1.2h50.9c0.7,0,1.2,0.5,1.2,1.2l0,0
				C67.3,188,66.8,188.5,66.1,188.5z"/>
			<path class="st3" d="M61,207.8H15.2c-0.7,0-1.2-0.5-1.2-1.2l0,0c0-0.7,0.5-1.2,1.2-1.2H61c0.7,0,1.2,0.5,1.2,1.2l0,0
				C62.2,207.3,61.7,207.8,61,207.8z"/>
			<path class="st3" d="M116.9,40.3h-4.6c-0.7,0-1.2-0.5-1.2-1.2l0,0c0-0.7,0.5-1.2,1.2-1.2h4.6c0.7,0,1.2,0.5,1.2,1.2l0,0
				C118,39.8,117.5,40.3,116.9,40.3z"/>
			<path class="st3" d="M116.9,59.6h-4.6c-0.7,0-1.2-0.5-1.2-1.2l0,0c0-0.7,0.5-1.2,1.2-1.2h4.6c0.7,0,1.2,0.5,1.2,1.2l0,0
				C118,59,117.5,59.6,116.9,59.6z"/>
			<path class="st3" d="M116.9,78.9h-4.6c-0.7,0-1.2-0.5-1.2-1.2l0,0c0-0.7,0.5-1.2,1.2-1.2h4.6c0.7,0,1.2,0.5,1.2,1.2l0,0
				C118,78.3,117.5,78.9,116.9,78.9z"/>
			<path class="st3" d="M116.9,98.1h-4.6c-0.7,0-1.2-0.5-1.2-1.2l0,0c0-0.7,0.5-1.2,1.2-1.2h4.6c0.7,0,1.2,0.5,1.2,1.2l0,0
				C118,97.6,117.5,98.1,116.9,98.1z"/>
			<path class="st3" d="M116.9,117.4h-4.6c-0.7,0-1.2-0.5-1.2-1.2l0,0c0-0.7,0.5-1.2,1.2-1.2h4.6c0.7,0,1.2,0.5,1.2,1.2l0,0
				C118,116.9,117.5,117.4,116.9,117.4z"/>
			<path class="st3" d="M116.9,136.7h-4.6c-0.7,0-1.2-0.5-1.2-1.2l0,0c0-0.7,0.5-1.2,1.2-1.2h4.6c0.7,0,1.2,0.5,1.2,1.2l0,0
				C118,136.2,117.5,136.7,116.9,136.7z"/>
			<path class="st3" d="M116.9,156h-4.6c-0.7,0-1.2-0.5-1.2-1.2l0,0c0-0.7,0.5-1.2,1.2-1.2h4.6c0.7,0,1.2,0.5,1.2,1.2l0,0
				C118,155.5,117.5,156,116.9,156z"/>
			<path class="st3" d="M116.9,175.3h-4.6c-0.7,0-1.2-0.5-1.2-1.2l0,0c0-0.7,0.5-1.2,1.2-1.2h4.6c0.7,0,1.2,0.5,1.2,1.2l0,0
				C118,174.7,117.5,175.3,116.9,175.3z"/>
			<path class="st3" d="M116.9,194.5h-4.6c-0.7,0-1.2-0.5-1.2-1.2l0,0c0-0.7,0.5-1.2,1.2-1.2h4.6c0.7,0,1.2,0.5,1.2,1.2l0,0
				C118,194,117.5,194.5,116.9,194.5z"/>
			<path class="st3" d="M116.9,49.9h-4.6c-0.7,0-1.2-0.5-1.2-1.2l0,0c0-0.7,0.5-1.2,1.2-1.2h4.6c0.7,0,1.2,0.5,1.2,1.2l0,0
				C118,49.4,117.5,49.9,116.9,49.9z"/>
			<path class="st3" d="M116.9,69.2h-4.6c-0.7,0-1.2-0.5-1.2-1.2l0,0c0-0.7,0.5-1.2,1.2-1.2h4.6c0.7,0,1.2,0.5,1.2,1.2l0,0
				C118,68.7,117.5,69.2,116.9,69.2z"/>
			<path class="st3" d="M116.9,88.5h-4.6c-0.7,0-1.2-0.5-1.2-1.2l0,0c0-0.7,0.5-1.2,1.2-1.2h4.6c0.7,0,1.2,0.5,1.2,1.2l0,0
				C118,88,117.5,88.5,116.9,88.5z"/>
			<path class="st3" d="M116.9,107.8h-4.6c-0.7,0-1.2-0.5-1.2-1.2l0,0c0-0.7,0.5-1.2,1.2-1.2h4.6c0.7,0,1.2,0.5,1.2,1.2l0,0
				C118,107.3,117.5,107.8,116.9,107.8z"/>
			<path class="st3" d="M116.9,127.1h-4.6c-0.7,0-1.2-0.5-1.2-1.2l0,0c0-0.7,0.5-1.2,1.2-1.2h4.6c0.7,0,1.2,0.5,1.2,1.2l0,0
				C118,126.5,117.5,127.1,116.9,127.1z"/>
			<path class="st3" d="M116.9,146.3h-4.6c-0.7,0-1.2-0.5-1.2-1.2l0,0c0-0.7,0.5-1.2,1.2-1.2h4.6c0.7,0,1.2,0.5,1.2,1.2l0,0
				C118,145.8,117.5,146.3,116.9,146.3z"/>
			<path class="st3" d="M116.9,165.6h-4.6c-0.7,0-1.2-0.5-1.2-1.2l0,0c0-0.7,0.5-1.2,1.2-1.2h4.6c0.7,0,1.2,0.5,1.2,1.2l0,0
				C118,165.1,117.5,165.6,116.9,165.6z"/>
			<path class="st3" d="M116.9,184.9h-4.6c-0.7,0-1.2-0.5-1.2-1.2l0,0c0-0.7,0.5-1.2,1.2-1.2h4.6c0.7,0,1.2,0.5,1.2,1.2l0,0
				C118,184.4,117.5,184.9,116.9,184.9z"/>
			<path class="st3" d="M116.9,204.2h-4.6c-0.7,0-1.2-0.5-1.2-1.2l0,0c0-0.7,0.5-1.2,1.2-1.2h4.6c0.7,0,1.2,0.5,1.2,1.2l0,0
				C118,203.7,117.5,204.2,116.9,204.2z"/>
			<path class="st2" d="M199,40.3h-68.4c-0.7,0-1.2-0.5-1.2-1.2l0,0c0-0.7,0.5-1.2,1.2-1.2H199c0.7,0,1.2,0.5,1.2,1.2l0,0
				C200.2,39.8,199.6,40.3,199,40.3z"/>
			<path class="st4" d="M263.7,59.6H143.1c-0.7,0-1.2-0.5-1.2-1.2l0,0c0-0.7,0.5-1.2,1.2-1.2h120.6c0.7,0,1.2,0.5,1.2,1.2l0,0
				C264.8,59,264.3,59.6,263.7,59.6z"/>
			<path class="st4" d="M241.2,78.9h-98.1c-0.7,0-1.2-0.5-1.2-1.2l0,0c0-0.7,0.5-1.2,1.2-1.2h98.1c0.7,0,1.2,0.5,1.2,1.2l0,0
				C242.3,78.3,241.8,78.9,241.2,78.9z"/>
			<path class="st4" d="M252.7,117.4H143.1c-0.7,0-1.2-0.5-1.2-1.2l0,0c0-0.7,0.5-1.2,1.2-1.2h109.6c0.7,0,1.2,0.5,1.2,1.2l0,0
				C253.9,116.9,253.4,117.4,252.7,117.4z"/>
			<path class="st4" d="M233,136.7h-89.9c-0.7,0-1.2-0.5-1.2-1.2l0,0c0-0.7,0.5-1.2,1.2-1.2H233c0.7,0,1.2,0.5,1.2,1.2l0,0
				C234.2,136.2,233.7,136.7,233,136.7z"/>
			<path class="st2" d="M179.7,156h-49.1c-0.7,0-1.2-0.5-1.2-1.2l0,0c0-0.7,0.5-1.2,1.2-1.2h49.1c0.7,0,1.2,0.5,1.2,1.2l0,0
				C180.8,155.5,180.3,156,179.7,156z"/>
			<path class="st4" d="M248.6,194.5H143.1c-0.7,0-1.2-0.5-1.2-1.2l0,0c0-0.7,0.5-1.2,1.2-1.2h105.5c0.7,0,1.2,0.5,1.2,1.2l0,0
				C249.8,194,249.3,194.5,248.6,194.5z"/>
			<path class="st4" d="M277.7,49.9H143.1c-0.7,0-1.2-0.5-1.2-1.2l0,0c0-0.7,0.5-1.2,1.2-1.2h134.6c0.7,0,1.2,0.5,1.2,1.2l0,0
				C278.9,49.4,278.4,49.9,277.7,49.9z"/>
			<path class="st4" d="M211.5,69.2h-68.4c-0.7,0-1.2-0.5-1.2-1.2l0,0c0-0.7,0.5-1.2,1.2-1.2h68.4c0.7,0,1.2,0.5,1.2,1.2l0,0
				C212.7,68.7,212.1,69.2,211.5,69.2z"/>
			<path class="st4" d="M227.2,88.5h-84.1c-0.7,0-1.2-0.5-1.2-1.2l0,0c0-0.7,0.5-1.2,1.2-1.2h84.1c0.7,0,1.2,0.5,1.2,1.2l0,0
				C228.4,88,227.9,88.5,227.2,88.5z"/>
			<path class="st2" d="M168.1,107.8h-37.5c-0.7,0-1.2-0.5-1.2-1.2l0,0c0-0.7,0.5-1.2,1.2-1.2h37.5c0.7,0,1.2,0.5,1.2,1.2l0,0
				C169.3,107.3,168.8,107.8,168.1,107.8z"/>
			<path class="st4" d="M270.1,127.1h-127c-0.7,0-1.2-0.5-1.2-1.2l0,0c0-0.7,0.5-1.2,1.2-1.2h127c0.7,0,1.2,0.5,1.2,1.2l0,0
				C271.3,126.5,270.8,127.1,270.1,127.1z"/>
			<path class="st4" d="M225.5,165.6h-82.4c-0.7,0-1.2-0.5-1.2-1.2l0,0c0-0.7,0.5-1.2,1.2-1.2h82.4c0.7,0,1.2,0.5,1.2,1.2l0,0
				C226.7,165.1,226.2,165.6,225.5,165.6z"/>
			<path class="st2" d="M210.7,184.9h-80.1c-0.7,0-1.2-0.5-1.2-1.2l0,0c0-0.7,0.5-1.2,1.2-1.2h80.1c0.7,0,1.2,0.5,1.2,1.2l0,0
				C211.8,184.4,211.3,184.9,210.7,184.9z"/>
			<path class="st4" d="M230.4,204.2h-87.3c-0.7,0-1.2-0.5-1.2-1.2l0,0c0-0.7,0.5-1.2,1.2-1.2h87.3c0.7,0,1.2,0.5,1.2,1.2l0,0
				C231.5,203.7,231,204.2,230.4,204.2z"/>
			<path class="st3" d="M116.9,213.5h-4.6c-0.7,0-1.2-0.5-1.2-1.2l0,0c0-0.7,0.5-1.2,1.2-1.2h4.6c0.7,0,1.2,0.5,1.2,1.2l0,0
				C118,213,117.5,213.5,116.9,213.5z"/>
			<path class="st3" d="M116.9,232.8h-4.6c-0.7,0-1.2-0.5-1.2-1.2l0,0c0-0.7,0.5-1.2,1.2-1.2h4.6c0.7,0,1.2,0.5,1.2,1.2l0,0
				C118,232.2,117.5,232.8,116.9,232.8z"/>
			<path class="st3" d="M116.9,252h-4.6c-0.7,0-1.2-0.5-1.2-1.2l0,0c0-0.7,0.5-1.2,1.2-1.2h4.6c0.7,0,1.2,0.5,1.2,1.2l0,0
				C118,251.5,117.5,252,116.9,252z"/>
			<path class="st3" d="M116.9,271.3h-4.6c-0.7,0-1.2-0.5-1.2-1.2l0,0c0-0.7,0.5-1.2,1.2-1.2h4.6c0.7,0,1.2,0.5,1.2,1.2l0,0
				C118,270.8,117.5,271.3,116.9,271.3z"/>
			<path class="st3" d="M116.9,223.1h-4.6c-0.7,0-1.2-0.5-1.2-1.2l0,0c0-0.7,0.5-1.2,1.2-1.2h4.6c0.7,0,1.2,0.5,1.2,1.2l0,0
				C118,222.6,117.5,223.1,116.9,223.1z"/>
			<path class="st3" d="M116.9,242.4h-4.6c-0.7,0-1.2-0.5-1.2-1.2l0,0c0-0.7,0.5-1.2,1.2-1.2h4.6c0.7,0,1.2,0.5,1.2,1.2l0,0
				C118,241.9,117.5,242.4,116.9,242.4z"/>
			<path class="st3" d="M116.9,261.7h-4.6c-0.7,0-1.2-0.5-1.2-1.2l0,0c0-0.7,0.5-1.2,1.2-1.2h4.6c0.7,0,1.2,0.5,1.2,1.2l0,0
				C118,261.2,117.5,261.7,116.9,261.7z"/>
		</g>
	</g>
</g>
<g id="Layer_4_00000121957548544285466340000003556641331063463335_">
</g>
</svg>
