<?xml version="1.0" encoding="utf-8"?>
<!-- Generator: Adobe Illustrator 27.1.0, SVG Export Plug-In . SVG Version: 6.00 Build 0)  -->
<svg version="1.1" id="Layer_1" xmlns="http://www.w3.org/2000/svg" xmlns:xlink="http://www.w3.org/1999/xlink" x="0px" y="0px"
	 viewBox="0 0 394.9 250.1" style="enable-background:new 0 0 394.9 250.1;" xml:space="preserve">
<style type="text/css">
	.st0{opacity:0.8;fill:#1E1E1E;enable-background:new    ;}
	.st1{opacity:0.8;fill:#252526;enable-background:new    ;}
	.st2{fill:#00FFAB;}
	.st3{fill:#9C9EA1;}
	.st4{fill:#96B5C5;}
</style>
<g id="Layer_1_00000101800309217119045540000008261193294264411574_">
</g>
<g id="Layer_3">
</g>
<g id="Layer_4">
	<g>
		<g>
			<path class="st0" d="M94.2,250.1h292.4c4.6,0,8.3-3.7,8.3-8.3V24.7H94.2V250.1z"/>
			<path class="st1" d="M0,24.7v217.1c0,4.6,3.7,8.3,8.3,8.3h85.8V24.7H0z"/>
			<path d="M386.6,0H94.2H8.3C3.7,0,0,3.7,0,8.3v16.4h94.2H395V8.3C394.9,3.7,391.2,0,386.6,0z"/>
		</g>
		<g>
			<circle class="st2" cx="20" cy="12.3" r="6"/>
			<circle class="st2" cx="59.7" cy="12.3" r="6"/>
			<circle class="st2" cx="39.9" cy="12.3" r="6"/>
		</g>
		<path class="st3" d="M78.1,43.9H15.2c-0.7,0-1.2-0.5-1.2-1.2l0,0c0-0.7,0.5-1.2,1.2-1.2h62.9c0.7,0,1.2,0.5,1.2,1.2l0,0
			C79.2,43.4,78.7,43.9,78.1,43.9z"/>
		<path class="st3" d="M57.3,63.2H15.2c-0.7,0-1.2-0.5-1.2-1.2l0,0c0-0.7,0.5-1.2,1.2-1.2h42.1c0.7,0,1.2,0.5,1.2,1.2l0,0
			C58.4,62.7,57.9,63.2,57.3,63.2z"/>
		<path class="st3" d="M63.6,82.5H15.2c-0.7,0-1.2-0.5-1.2-1.2l0,0c0-0.7,0.5-1.2,1.2-1.2h48.4c0.7,0,1.2,0.5,1.2,1.2l0,0
			C64.8,82,64.3,82.5,63.6,82.5z"/>
		<path class="st3" d="M72.1,101.8H15.2c-0.7,0-1.2-0.5-1.2-1.2l0,0c0-0.7,0.5-1.2,1.2-1.2H72c0.7,0,1.2,0.5,1.2,1.2l0,0
			C73.2,101.3,72.7,101.8,72.1,101.8z"/>
		<path class="st3" d="M60.3,121.1H15.2c-0.7,0-1.2-0.5-1.2-1.2l0,0c0-0.7,0.5-1.2,1.2-1.2h45.1c0.7,0,1.2,0.5,1.2,1.2l0,0
			C61.5,120.5,60.9,121.1,60.3,121.1z"/>
		<path class="st3" d="M74.1,140.3H15.2c-0.7,0-1.2-0.5-1.2-1.2l0,0c0-0.7,0.5-1.2,1.2-1.2h58.9c0.7,0,1.2,0.5,1.2,1.2l0,0
			C75.3,139.8,74.7,140.3,74.1,140.3z"/>
		<path class="st2" d="M46.8,159.6H15.2c-0.7,0-1.2-0.5-1.2-1.2l0,0c0-0.7,0.5-1.2,1.2-1.2h31.6c0.7,0,1.2,0.5,1.2,1.2l0,0
			C48,159.1,47.5,159.6,46.8,159.6z"/>
		<path class="st3" d="M74.1,178.9H15.2c-0.7,0-1.2-0.5-1.2-1.2l0,0c0-0.7,0.5-1.2,1.2-1.2h58.9c0.7,0,1.2,0.5,1.2,1.2l0,0
			C75.3,178.4,74.7,178.9,74.1,178.9z"/>
		<path class="st3" d="M60.5,198.2H15.2c-0.7,0-1.2-0.5-1.2-1.2l0,0c0-0.7,0.5-1.2,1.2-1.2h45.3c0.7,0,1.2,0.5,1.2,1.2l0,0
			C61.6,197.7,61.1,198.2,60.5,198.2z"/>
		<path class="st3" d="M63.6,53.6H15.2c-0.7,0-1.2-0.5-1.2-1.2l0,0c0-0.7,0.5-1.2,1.2-1.2h48.4c0.7,0,1.2,0.5,1.2,1.2l0,0
			C64.8,53.1,64.3,53.6,63.6,53.6z"/>
		<path class="st2" d="M44.7,72.9H15.2c-0.7,0-1.2-0.5-1.2-1.2l0,0c0-0.7,0.5-1.2,1.2-1.2h29.5c0.7,0,1.2,0.5,1.2,1.2l0,0
			C45.9,72.3,45.4,72.9,44.7,72.9z"/>
		<path class="st3" d="M64.7,92.1H15.2c-0.7,0-1.2-0.5-1.2-1.2l0,0c0-0.7,0.5-1.2,1.2-1.2h49.5c0.7,0,1.2,0.5,1.2,1.2l0,0
			C65.9,91.6,65.4,92.1,64.7,92.1z"/>
		<path class="st3" d="M70.1,111.4H15.2c-0.7,0-1.2-0.5-1.2-1.2l0,0c0-0.7,0.5-1.2,1.2-1.2h54.9c0.7,0,1.2,0.5,1.2,1.2l0,0
			C71.3,110.9,70.7,111.4,70.1,111.4z"/>
		<path class="st3" d="M68.8,130.7H15.2c-0.7,0-1.2-0.5-1.2-1.2l0,0c0-0.7,0.5-1.2,1.2-1.2h53.6c0.7,0,1.2,0.5,1.2,1.2l0,0
			C70,130.2,69.5,130.7,68.8,130.7z"/>
		<path class="st3" d="M55.8,150H15.2c-0.7,0-1.2-0.5-1.2-1.2l0,0c0-0.7,0.5-1.2,1.2-1.2h40.6c0.7,0,1.2,0.5,1.2,1.2l0,0
			C57,149.5,56.5,150,55.8,150z"/>
		<path class="st3" d="M40.2,169.3h-25c-0.7,0-1.2-0.5-1.2-1.2l0,0c0-0.7,0.5-1.2,1.2-1.2h25c0.7,0,1.2,0.5,1.2,1.2l0,0
			C41.4,168.7,40.9,169.3,40.2,169.3z"/>
		<path class="st3" d="M66.1,188.5H15.2c-0.7,0-1.2-0.5-1.2-1.2l0,0c0-0.7,0.5-1.2,1.2-1.2h50.9c0.7,0,1.2,0.5,1.2,1.2l0,0
			C67.3,188,66.8,188.5,66.1,188.5z"/>
		<path class="st3" d="M61,207.8H15.2c-0.7,0-1.2-0.5-1.2-1.2l0,0c0-0.7,0.5-1.2,1.2-1.2H61c0.7,0,1.2,0.5,1.2,1.2l0,0
			C62.2,207.3,61.7,207.8,61,207.8z"/>
		<path class="st3" d="M116.9,40.3h-4.6c-0.7,0-1.2-0.5-1.2-1.2l0,0c0-0.7,0.5-1.2,1.2-1.2h4.6c0.7,0,1.2,0.5,1.2,1.2l0,0
			C118,39.8,117.5,40.3,116.9,40.3z"/>
		<path class="st3" d="M116.9,59.6h-4.6c-0.7,0-1.2-0.5-1.2-1.2l0,0c0-0.7,0.5-1.2,1.2-1.2h4.6c0.7,0,1.2,0.5,1.2,1.2l0,0
			C118,59,117.5,59.6,116.9,59.6z"/>
		<path class="st3" d="M116.9,78.9h-4.6c-0.7,0-1.2-0.5-1.2-1.2l0,0c0-0.7,0.5-1.2,1.2-1.2h4.6c0.7,0,1.2,0.5,1.2,1.2l0,0
			C118,78.3,117.5,78.9,116.9,78.9z"/>
		<path class="st3" d="M116.9,98.1h-4.6c-0.7,0-1.2-0.5-1.2-1.2l0,0c0-0.7,0.5-1.2,1.2-1.2h4.6c0.7,0,1.2,0.5,1.2,1.2l0,0
			C118,97.6,117.5,98.1,116.9,98.1z"/>
		<path class="st3" d="M116.9,117.4h-4.6c-0.7,0-1.2-0.5-1.2-1.2l0,0c0-0.7,0.5-1.2,1.2-1.2h4.6c0.7,0,1.2,0.5,1.2,1.2l0,0
			C118,116.9,117.5,117.4,116.9,117.4z"/>
		<path class="st3" d="M116.9,136.7h-4.6c-0.7,0-1.2-0.5-1.2-1.2l0,0c0-0.7,0.5-1.2,1.2-1.2h4.6c0.7,0,1.2,0.5,1.2,1.2l0,0
			C118,136.2,117.5,136.7,116.9,136.7z"/>
		<path class="st3" d="M116.9,156h-4.6c-0.7,0-1.2-0.5-1.2-1.2l0,0c0-0.7,0.5-1.2,1.2-1.2h4.6c0.7,0,1.2,0.5,1.2,1.2l0,0
			C118,155.5,117.5,156,116.9,156z"/>
		<path class="st3" d="M116.9,175.3h-4.6c-0.7,0-1.2-0.5-1.2-1.2l0,0c0-0.7,0.5-1.2,1.2-1.2h4.6c0.7,0,1.2,0.5,1.2,1.2l0,0
			C118,174.7,117.5,175.3,116.9,175.3z"/>
		<path class="st3" d="M116.9,194.5h-4.6c-0.7,0-1.2-0.5-1.2-1.2l0,0c0-0.7,0.5-1.2,1.2-1.2h4.6c0.7,0,1.2,0.5,1.2,1.2l0,0
			C118,194,117.5,194.5,116.9,194.5z"/>
		<path class="st3" d="M116.9,49.9h-4.6c-0.7,0-1.2-0.5-1.2-1.2l0,0c0-0.7,0.5-1.2,1.2-1.2h4.6c0.7,0,1.2,0.5,1.2,1.2l0,0
			C118,49.4,117.5,49.9,116.9,49.9z"/>
		<path class="st3" d="M116.9,69.2h-4.6c-0.7,0-1.2-0.5-1.2-1.2l0,0c0-0.7,0.5-1.2,1.2-1.2h4.6c0.7,0,1.2,0.5,1.2,1.2l0,0
			C118,68.7,117.5,69.2,116.9,69.2z"/>
		<path class="st3" d="M116.9,88.5h-4.6c-0.7,0-1.2-0.5-1.2-1.2l0,0c0-0.7,0.5-1.2,1.2-1.2h4.6c0.7,0,1.2,0.5,1.2,1.2l0,0
			C118,88,117.5,88.5,116.9,88.5z"/>
		<path class="st3" d="M116.9,107.8h-4.6c-0.7,0-1.2-0.5-1.2-1.2l0,0c0-0.7,0.5-1.2,1.2-1.2h4.6c0.7,0,1.2,0.5,1.2,1.2l0,0
			C118,107.3,117.5,107.8,116.9,107.8z"/>
		<path class="st3" d="M116.9,127.1h-4.6c-0.7,0-1.2-0.5-1.2-1.2l0,0c0-0.7,0.5-1.2,1.2-1.2h4.6c0.7,0,1.2,0.5,1.2,1.2l0,0
			C118,126.5,117.5,127.1,116.9,127.1z"/>
		<path class="st3" d="M116.9,146.3h-4.6c-0.7,0-1.2-0.5-1.2-1.2l0,0c0-0.7,0.5-1.2,1.2-1.2h4.6c0.7,0,1.2,0.5,1.2,1.2l0,0
			C118,145.8,117.5,146.3,116.9,146.3z"/>
		<path class="st3" d="M116.9,165.6h-4.6c-0.7,0-1.2-0.5-1.2-1.2l0,0c0-0.7,0.5-1.2,1.2-1.2h4.6c0.7,0,1.2,0.5,1.2,1.2l0,0
			C118,165.1,117.5,165.6,116.9,165.6z"/>
		<path class="st3" d="M116.9,184.9h-4.6c-0.7,0-1.2-0.5-1.2-1.2l0,0c0-0.7,0.5-1.2,1.2-1.2h4.6c0.7,0,1.2,0.5,1.2,1.2l0,0
			C118,184.4,117.5,184.9,116.9,184.9z"/>
		<path class="st3" d="M116.9,204.2h-4.6c-0.7,0-1.2-0.5-1.2-1.2l0,0c0-0.7,0.5-1.2,1.2-1.2h4.6c0.7,0,1.2,0.5,1.2,1.2l0,0
			C118,203.7,117.5,204.2,116.9,204.2z"/>
		<path class="st2" d="M199,40.3h-68.4c-0.7,0-1.2-0.5-1.2-1.2l0,0c0-0.7,0.5-1.2,1.2-1.2H199c0.7,0,1.2,0.5,1.2,1.2l0,0
			C200.2,39.8,199.6,40.3,199,40.3z"/>
		<path class="st4" d="M236,59.6h-92.9c-0.7,0-1.2-0.5-1.2-1.2l0,0c0-0.7,0.5-1.2,1.2-1.2H236c0.7,0,1.2,0.5,1.2,1.2l0,0
			C237.1,59,236.6,59.6,236,59.6z"/>
		<path class="st4" d="M241.2,78.9h-98.1c-0.7,0-1.2-0.5-1.2-1.2l0,0c0-0.7,0.5-1.2,1.2-1.2h98.1c0.7,0,1.2,0.5,1.2,1.2l0,0
			C242.3,78.3,241.8,78.9,241.2,78.9z"/>
		<path class="st4" d="M252.7,155.8H143.1c-0.7,0-1.2-0.5-1.2-1.2l0,0c0-0.7,0.5-1.2,1.2-1.2h109.6c0.7,0,1.2,0.5,1.2,1.2l0,0
			C253.9,155.3,253.4,155.8,252.7,155.8z"/>
		<path class="st4" d="M260,175.1H143.1c-0.7,0-1.2-0.5-1.2-1.2l0,0c0-0.7,0.5-1.2,1.2-1.2H260c0.7,0,1.2,0.5,1.2,1.2l0,0
			C261.1,174.5,260.6,175.1,260,175.1z"/>
		<path class="st2" d="M195,194.4h-64.4c-0.7,0-1.2-0.5-1.2-1.2l0,0c0-0.7,0.5-1.2,1.2-1.2H195c0.7,0,1.2,0.5,1.2,1.2l0,0
			C196.2,193.8,195.6,194.4,195,194.4z"/>
		<path class="st4" d="M248.6,214.6H143.1c-0.7,0-1.2-0.5-1.2-1.2l0,0c0-0.7,0.5-1.2,1.2-1.2h105.5c0.7,0,1.2,0.5,1.2,1.2l0,0
			C249.8,214,249.3,214.6,248.6,214.6z"/>
		<path class="st4" d="M221.1,49.9h-78c-0.7,0-1.2-0.5-1.2-1.2l0,0c0-0.7,0.5-1.2,1.2-1.2h78c0.7,0,1.2,0.5,1.2,1.2l0,0
			C222.3,49.4,221.8,49.9,221.1,49.9z"/>
		<path class="st4" d="M260,69.2H143.1c-0.7,0-1.2-0.5-1.2-1.2l0,0c0-0.7,0.5-1.2,1.2-1.2H260c0.7,0,1.2,0.5,1.2,1.2l0,0
			C261.2,68.7,260.6,69.2,260,69.2z"/>
		<path class="st4" d="M237.4,88.5h-94.2c-0.7,0-1.2-0.5-1.2-1.2l0,0c0-0.7,0.5-1.2,1.2-1.2h94.2c0.7,0,1.2,0.5,1.2,1.2l0,0
			C238.5,88,238,88.5,237.4,88.5z"/>
		<path class="st2" d="M212.5,146.1h-81.9c-0.7,0-1.2-0.5-1.2-1.2l0,0c0-0.7,0.5-1.2,1.2-1.2h81.9c0.7,0,1.2,0.5,1.2,1.2l0,0
			C213.7,145.6,213.2,146.1,212.5,146.1z"/>
		<path class="st4" d="M240.1,165.4h-97c-0.7,0-1.2-0.5-1.2-1.2l0,0c0-0.7,0.5-1.2,1.2-1.2h97c0.7,0,1.2,0.5,1.2,1.2l0,0
			C241.3,164.9,240.7,165.4,240.1,165.4z"/>
		<path class="st4" d="M254.9,204H143.1c-0.7,0-1.2-0.5-1.2-1.2l0,0c0-0.7,0.5-1.2,1.2-1.2h111.8c0.7,0,1.2,0.5,1.2,1.2l0,0
			C256.1,203.5,255.6,204,254.9,204z"/>
		<path class="st4" d="M218.5,224.2h-75.3c-0.7,0-1.2-0.5-1.2-1.2l0,0c0-0.7,0.5-1.2,1.2-1.2h75.3c0.7,0,1.2,0.5,1.2,1.2l0,0
			C219.6,223.7,219.1,224.2,218.5,224.2z"/>
		<path class="st3" d="M116.9,213.5h-4.6c-0.7,0-1.2-0.5-1.2-1.2l0,0c0-0.7,0.5-1.2,1.2-1.2h4.6c0.7,0,1.2,0.5,1.2,1.2l0,0
			C118,213,117.5,213.5,116.9,213.5z"/>
		<path class="st3" d="M116.9,232.8h-4.6c-0.7,0-1.2-0.5-1.2-1.2l0,0c0-0.7,0.5-1.2,1.2-1.2h4.6c0.7,0,1.2,0.5,1.2,1.2l0,0
			C118,232.2,117.5,232.8,116.9,232.8z"/>
		<path class="st3" d="M116.9,223.1h-4.6c-0.7,0-1.2-0.5-1.2-1.2l0,0c0-0.7,0.5-1.2,1.2-1.2h4.6c0.7,0,1.2,0.5,1.2,1.2l0,0
			C118,222.6,117.5,223.1,116.9,223.1z"/>
		<path class="st3" d="M116.9,242.4h-4.6c-0.7,0-1.2-0.5-1.2-1.2l0,0c0-0.7,0.5-1.2,1.2-1.2h4.6c0.7,0,1.2,0.5,1.2,1.2l0,0
			C118,241.9,117.5,242.4,116.9,242.4z"/>
		<path class="st4" d="M239.4,98.1h-96.3c-0.7,0-1.2-0.5-1.2-1.2l0,0c0-0.7,0.5-1.2,1.2-1.2h96.3c0.7,0,1.2,0.5,1.2,1.2l0,0
			C240.6,97.6,240,98.1,239.4,98.1z"/>
		<path class="st4" d="M241.2,117.4h-98.1c-0.7,0-1.2-0.5-1.2-1.2l0,0c0-0.7,0.5-1.2,1.2-1.2h98.1c0.7,0,1.2,0.5,1.2,1.2l0,0
			C242.3,116.9,241.8,117.4,241.2,117.4z"/>
		<path class="st4" d="M234.2,107.8h-91.1c-0.7,0-1.2-0.5-1.2-1.2l0,0c0-0.7,0.5-1.2,1.2-1.2h91.1c0.7,0,1.2,0.5,1.2,1.2l0,0
			C235.3,107.3,234.8,107.8,234.2,107.8z"/>
		<path class="st4" d="M259.3,127.1H143.1c-0.7,0-1.2-0.5-1.2-1.2l0,0c0-0.7,0.5-1.2,1.2-1.2h116.2c0.7,0,1.2,0.5,1.2,1.2l0,0
			C260.5,126.5,259.9,127.1,259.3,127.1z"/>
	</g>
</g>
<g id="Layer_4_00000121957548544285466340000003556641331063463335_">
</g>
</svg>
