<?xml version="1.0" encoding="utf-8"?>
<!-- Generator: Adobe Illustrator 27.1.0, SVG Export Plug-In . SVG Version: 6.00 Build 0)  -->
<svg version="1.1" id="Layer_1" xmlns="http://www.w3.org/2000/svg" xmlns:xlink="http://www.w3.org/1999/xlink" x="0px" y="0px"
	 viewBox="0 0 412.3 415.5" style="enable-background:new 0 0 412.3 415.5;" xml:space="preserve">
<style type="text/css">
	.st0{fill:#FFFFFF;}
</style>
<g>
	<path class="st0" d="M410.2,207.4c-14.5-1.1-28.9-2-43.4-3.2c-24.7-2.1-49.4-4.9-73.5-11c-32.9-8.3-57.2-26.1-68.3-59.4
		c-6.5-19.4-10.1-39.4-12.2-59.6c-2.5-24.3-4.5-48.7-6.8-74.3c-0.4,3.1-0.8,5.1-1,7c-1.1,14.6-2,29.2-3.3,43.8
		c-2.3,25.2-5.1,50.3-12,74.8c-8.6,30.6-26.4,52.7-57.1,63.1c-6,2-12,3.9-18.2,5.4c-31.1,7.4-62.8,9.6-94.5,12
		c-6.6,0.5-13.3,1-19.9,1.5c0.7,1.1,1.3,1.3,1.9,1.3c21.4,1.7,42.9,3.2,64.2,5.3c22.2,2.2,44.2,5.6,65.5,12.9
		c27.4,9.4,46,27.5,55.1,55c2.7,8.2,5.6,16.5,6.8,25c3.8,28,7,56.1,10.2,84.2c0.9,8,1.3,16,1.9,24c1.9-14.7,2.9-29.3,4.2-43.9
		c2.2-25.2,4.8-50.4,11-75c7.8-31.6,23.9-56.2,55.9-67.9c6.7-2.4,13.6-4.7,20.5-6.3c31.1-7.5,62.8-9.7,94.5-12.1
		c6.9-0.5,13.8-1,20.6-1.5C411.6,207.7,410.9,207.5,410.2,207.4z"/>
	<path class="st0" d="M272.3,99.4c9.7,2.9,16.2,9.6,19.4,19.2c1.3,3.8,2.3,7.6,3.1,11.5c1.2,5.5,2.1,11,3.2,17.2
		c2-9.3,3.6-17.8,5.8-26.1c3-11.8,10.7-19.3,22.3-22.7c3.2-0.9,6.4-1.7,9.7-2.4c5.3-1.1,10.7-2,16-3c-6.1-1.7-12.1-2.9-18.2-3.9
		c-18.1-3-28.7-13.5-31.8-31.6c-1-6.2-2.2-12.3-3.6-19.7c-1.7,8.4-3.1,15.6-4.6,22.7c-3.1,15.1-12.1,24.4-27.3,27.6
		c-7.2,1.5-14.5,2.9-21.7,4.4c1.7,0.9,3.5,1.2,5.2,1.6C257.5,95.9,265,97.2,272.3,99.4z"/>
	<path class="st0" d="M141.5,309.6c0.3,20.5-10.8,30.2-31.3,31.4c21,0.5,31.4,11,32.4,31.9c0.8-21.1,11.6-31.3,30.9-31.1
		c-7.4-3.1-16.7-4.5-22-9.8C146.2,326.6,144.8,317.4,141.5,309.6z"/>
</g>
</svg>
