<?xml version="1.0" encoding="utf-8"?>
<!-- Generator: Adobe Illustrator 27.1.0, SVG Export Plug-In . SVG Version: 6.00 Build 0)  -->
<svg version="1.1" id="Layer_1" xmlns="http://www.w3.org/2000/svg" xmlns:xlink="http://www.w3.org/1999/xlink" x="0px" y="0px"
	 viewBox="0 0 357.5 358.8" style="enable-background:new 0 0 357.5 358.8;" xml:space="preserve">
<style type="text/css">
	.st0{fill:#FFFFFF;}
</style>
<g>
	<path class="st0" d="M341,176.4c-25.3-3.9-50.6-8.1-75.1-15.9c-34.1-10.8-57.4-32.7-67.5-67.1c-5.9-20.1-9.8-40.7-14.1-61.2
		c-2.2-10.5-3.3-21.3-5-32c-0.3-0.1-0.6-0.1-0.9-0.2c-0.4,2.8-0.8,5.6-1.2,8.4c-3.9,27-8.2,53.9-15.9,80.2
		c-10.9,37.2-34.1,62.2-71.7,72.4c-21.8,5.9-44.1,9.8-66.3,14.3c-7.7,1.6-15.5,2.4-23.2,3.6c3.3,1.5,6.5,2,9.7,2.5
		c26.7,4,53.3,8.2,79.2,16c36.6,10.9,60.9,34,71.4,70.8c4.1,14.5,7.7,29.3,10.6,44.1c3.1,15.4,5.1,31,7.6,46.5c1.3-4,2-8.1,2.6-12.1
		c3.9-26.3,8.2-52.6,15.9-78.2c10.8-35.7,33.4-60.1,69.5-70.1c22.2-6.1,45.1-10.2,67.7-14.9c7.7-1.6,15.5-2.4,23.2-3.5
		C352,178,346.5,177.2,341,176.4z"/>
	<path class="st0" d="M48.8,90c1.8,6.7,2.9,13.7,4.3,20.5c0.2,1.1,0.6,2.1,1.2,4.4c1.5-7.7,2.6-13.9,3.9-20.1
		c3-15.1,11.7-24.6,27.1-27.6c6.8-1.3,13.6-2.7,21.4-4.3c-7.6-1.5-14.2-2.8-20.9-4.1c-15.7-3.1-24.8-12.6-27.7-28.2
		c-1.2-6.1-2.4-12.2-3.5-18.3c-1.4,3.3-2,6.6-2.5,9.9c-4.2,26.2-11.5,33.6-37.7,38.3c-3.8,0.7-7.6,1.4-12.3,2.2
		c9.2,2,17.4,3.6,25.4,5.7C38.6,71.4,45.8,78.8,48.8,90z"/>
</g>
</svg>
